<?xml version="1.0" encoding="UTF-8" standalone="no"?>
<svg width="19px" height="27px" viewBox="0 0 19 27" version="1.1" xmlns="http://www.w3.org/2000/svg" xmlns:xlink="http://www.w3.org/1999/xlink" xmlns:sketch="http://www.bohemiancoding.com/sketch/ns">
    <!-- Generator: Sketch 3.0.3 (7892) - http://www.bohemiancoding.com/sketch -->
    <title>Slice 1</title>
    <desc>Created with Sketch.</desc>
    <defs></defs>
    <g id="Page-1" stroke="none" stroke-width="1" fill="none" fill-rule="evenodd" sketch:type="MSPage">
        <g id="Imported-Layers-3" sketch:type="MSLayerGroup" fill="#2A2539">
            <path d="M9.33406667,-0.172738462 C10.7544222,-0.172738462 12.0316444,0.125784615 13.1682667,0.724123077 C14.3036222,1.3216 15.2092889,2.18184615 15.8831556,3.30830769 C16.5574444,4.43347692 16.8939556,5.66763077 16.8939556,7.00990769 C16.8939556,8.31858462 16.5663111,9.53292308 15.9076444,10.6516308 C15.2502444,11.7707692 14.3471111,12.6383385 13.1982444,13.2560615 C12.0493778,13.8733538 10.7544222,14.1822154 9.31506667,14.1822154 C7.89344444,14.1822154 6.60271111,13.8690462 5.44117778,13.2405538 C4.27922222,12.6129231 3.37355556,11.7496615 2.72628889,10.6516308 C2.07817778,9.55273846 1.75391111,8.3384 1.75391111,7.00990769 C1.75391111,5.72750769 2.07817778,4.52221538 2.72628889,3.39273846 C3.37355556,2.26455385 4.26782222,1.3888 5.40571111,0.762461538 C6.54571111,0.138276923 7.85417778,-0.172738462 9.33406667,-0.172738462 L9.33406667,-0.172738462 Z M4.49286667,7.00990769 C4.49286667,7.93907692 4.69975556,8.77347692 5.11268889,9.51353846 C5.5252,10.2553231 6.09773333,10.8308308 6.83577778,11.2374769 C7.57128889,11.6436923 8.40433333,11.8483077 9.33406667,11.8483077 C10.7417556,11.8483077 11.8990667,11.3977231 12.8051556,10.4969846 C13.7116667,9.59452308 14.1651333,8.43187692 14.1651333,7.00990769 C14.1651333,6.08116923 13.9607778,5.24590769 13.5516444,4.50110769 C13.1416667,3.75544615 12.5670222,3.17950769 11.8234889,2.77329231 C11.0799556,2.36492308 10.2448,2.1616 9.31506667,2.1616 C8.38491111,2.1616 7.54891111,2.36578462 6.80495556,2.77630769 C6.06268889,3.1864 5.49226667,3.7632 5.092,4.50110769 C4.69384444,5.23858462 4.49286667,6.07513846 4.49286667,7.00990769 L4.49286667,7.00990769 Z" id="Fill-1" sketch:type="MSShapeGroup"></path>
            <path d="M9.34377778,27.3538462 C8.96335556,27.3538462 8.60277778,27.1793846 8.36211111,26.8778462 L0.0350444444,16.2107077 L3.26884444,16.2107077 L9.33195556,24.0016 L15.4102667,16.2107077 L18.6128222,16.2107077 L10.3351556,26.8662154 C10.0961778,27.1724923 9.73475556,27.3516923 9.35137778,27.3538462 L9.34377778,27.3538462" id="Fill-2" sketch:type="MSShapeGroup"></path>
        </g>
    </g>
</svg>