<?xml version="1.0" encoding="UTF-8" standalone="no"?>
<svg width="31px" height="22px" viewBox="0 0 31 22" version="1.1" xmlns="http://www.w3.org/2000/svg" xmlns:xlink="http://www.w3.org/1999/xlink" xmlns:sketch="http://www.bohemiancoding.com/sketch/ns">
    <!-- Generator: Sketch 3.0.4 (8054) - http://www.bohemiancoding.com/sketch -->
    <title>Imported Layers</title>
    <desc>Created with Sketch.</desc>
    <defs></defs>
    <g id="Page-1" stroke="none" stroke-width="1" fill="none" fill-rule="evenodd" sketch:type="MSPage">
        <g id="Imported-Layers" sketch:type="MSLayerGroup" transform="translate(15.000000, 10.500000) rotate(-90.000000) translate(-15.000000, -10.500000) translate(5.000000, -4.000000)" fill="#63BF82">
            <path d="M9.90088889,0.176676923 C11.396,0.176676923 12.7404444,0.485861538 13.9364444,1.10556923 C15.132,1.72483077 16.0853333,2.6158 16.7946667,3.78204615 C17.5044444,4.9474 17.8586667,6.22607692 17.8586667,7.61629231 C17.8586667,8.97170769 17.5137778,10.2289692 16.8204444,11.3880769 C16.1284444,12.5471846 15.1773333,13.4452923 13.9684444,14.0850769 C12.7591111,14.7244154 11.396,15.0443077 9.88044444,15.0443077 C8.38444444,15.0443077 7.02577778,14.7204 5.80311111,14.0694615 C4.58,13.4194154 3.62666667,12.5253231 2.94533333,11.3880769 C2.26311111,10.2494923 1.92177778,8.99223077 1.92177778,7.61629231 C1.92177778,6.28764615 2.26311111,5.03930769 2.94533333,3.86949231 C3.62666667,2.70101538 4.568,1.79398462 5.76577778,1.14572308 C6.96577778,0.499246154 8.34311111,0.176676923 9.90088889,0.176676923 L9.90088889,0.176676923 Z M4.80444444,7.61629231 C4.80444444,8.5782 5.02266667,9.44284615 5.45733333,10.2088923 C5.89155556,10.9771692 6.49422222,11.5732308 7.27111111,11.9944 C8.04533333,12.4155692 8.92222222,12.6270462 9.90088889,12.6270462 C11.3826667,12.6270462 12.6008889,12.1603692 13.5546667,11.2279077 C14.5088889,10.2927692 14.9862222,9.08904615 14.9862222,7.61629231 C14.9862222,6.65438462 14.7706667,5.78884615 14.3404444,5.01789231 C13.9088889,4.24515385 13.304,3.64864615 12.5213333,3.22792308 C11.7386667,2.80541538 10.8595556,2.59438462 9.88044444,2.59438462 C8.90177778,2.59438462 8.02177778,2.80630769 7.23866667,3.23149231 C6.45733333,3.65623077 5.85688889,4.25363077 5.436,5.01789231 C5.01644444,5.78126154 4.80444444,6.64813846 4.80444444,7.61629231 L4.80444444,7.61629231 Z" id="Fill-1" sketch:type="MSShapeGroup"></path>
            <path d="M9.91111111,28.6863538 C9.51066667,28.6863538 9.13111111,28.5056615 8.87822222,28.1938 L0.112444444,17.1452462 L3.516,17.1452462 L9.89911111,25.2143846 L16.2964444,17.1452462 L19.668,17.1452462 L10.9542222,28.1817538 C10.7031111,28.4985231 10.3226667,28.6841231 9.91866667,28.6863538 L9.91111111,28.6863538" id="Fill-2" sketch:type="MSShapeGroup"></path>
        </g>
    </g>
</svg>