<?xml version="1.0" encoding="UTF-8" standalone="no"?>
<svg width="32px" height="33px" viewBox="0 0 32 33" version="1.1" xmlns="http://www.w3.org/2000/svg" xmlns:xlink="http://www.w3.org/1999/xlink" xmlns:sketch="http://www.bohemiancoding.com/sketch/ns">
    <!-- Generator: Sketch 3.0.3 (7892) - http://www.bohemiancoding.com/sketch -->
    <title>Slice 1</title>
    <desc>Created with Sketch.</desc>
    <defs></defs>
    <g id="Page-1" stroke="none" stroke-width="1" fill="none" fill-rule="evenodd" sketch:type="MSPage">
        <g id="Imported-Layers-2" sketch:type="MSLayerGroup" transform="translate(2.000000, 2.000000)" stroke="#2A2539" stroke-width="3">
            <path d="M0.0496,14.6304167 C0.0496,6.696625 6.38186667,0.265416667 14.1930667,0.265416667 C22.0053333,0.265416667 28.3370667,6.696625 28.3370667,14.6304167 C28.3370667,22.5636667 22.0053333,28.994875 14.1930667,28.994875 C6.38186667,28.994875 0.0496,22.5636667 0.0496,14.6304167 L0.0496,14.6304167 Z" id="Stroke-1" sketch:type="MSShapeGroup"></path>
            <path d="M7.29973333,27.1765 C6.48906667,20.9652083 8.53333333,15.6086667 16.5285333,12.6387083 M8.9744,10.2526667 L17.3136,11.9166667 L15.3610667,20.9652083 M16,7.04166667 C16,7.04166667 20.6218667,7.13158333 22.1333333,10.8333333 C23.6442667,14.5350833 22.1333333,17.3485 22.1333333,17.3485" id="Stroke-2" stroke-linecap="round" stroke-linejoin="round" sketch:type="MSShapeGroup"></path>
        </g>
    </g>
</svg>