<?xml version="1.0" encoding="UTF-8" standalone="no"?>
<svg width="255px" height="36px" viewBox="0 0 255 36" version="1.1" xmlns="http://www.w3.org/2000/svg" xmlns:xlink="http://www.w3.org/1999/xlink" xmlns:sketch="http://www.bohemiancoding.com/sketch/ns">
    <!-- Generator: Sketch 3.0.2 (7799) - http://www.bohemiancoding.com/sketch -->
    <title>Slice 1</title>
    <description>Created with Sketch.</description>
    <defs></defs>
    <g id="Page-1" stroke="none" stroke-width="1" fill="none" fill-rule="evenodd" sketch:type="MSPage">
        <g id="Imported-Layers" sketch:type="MSLayerGroup" fill="#63BF82">
            <path d="M59.5266475,0 C63.184427,0 66.4756672,0.748649622 69.4025434,2.24918977 C72.3272443,3.74864962 74.6613492,5.90601368 76.3972446,8.72992438 C78.13314,11.5516745 79,14.6467411 79,18.0140439 C79,21.2960029 78.1570684,24.3402953 76.4592409,27.1469211 C74.7668517,29.953547 72.4392727,32.1281959 69.4797669,33.6773497 C66.5213487,35.2254231 63.184427,36 59.4766154,36 C55.815573,36 52.4895278,35.2157004 49.4973924,33.6395391 C46.5041693,32.0655384 44.1722397,29.9006122 42.5048666,27.1469211 C40.8342304,24.3899892 40,21.3456968 40,18.0140439 C40,14.7969031 40.8342304,11.7742168 42.5048666,8.94166367 C44.1722397,6.11235146 46.4758903,3.91609651 49.4060295,2.346417 C52.3437822,0.781058696 55.7133335,0 59.5266475,0 L59.5266475,0 Z M47,18.013341 C47,20.3144039 47.5347477,22.3817317 48.6031517,24.2153244 C49.6682818,26.0531863 51.1492055,27.4790768 53.056836,28.4865923 C54.9568273,29.4941077 57.1110966,30 59.5141872,30 C63.1526541,30 66.1428759,28.8836216 68.4859438,26.6519322 C70.8279204,24.4159737 72,21.5364433 72,18.013341 C72,15.7112109 71.4718002,13.6417486 70.4143094,11.7964157 C69.3546359,9.94894828 67.869347,8.52199048 65.9475292,7.51554231 C64.0268029,6.50482501 61.867077,6 59.4639864,6 C57.0608958,6 54.8989873,6.50589229 52.9771695,7.52408058 C51.0586258,8.5401343 49.5831587,9.96922666 48.549677,11.7964157 C47.5205605,13.6236047 47,15.6973362 47,18.013341 L47,18.013341 Z" id="Fill-1" sketch:type="MSShapeGroup"></path>
            <path d="M30.6298647,21.3819801 C29.4897737,21.9019508 29.203116,22.8007726 29.203116,23.8407139 L29.203116,34.8154593 L28.5872924,35 L26.0215426,32.115737 C23.2694108,33.1578494 18.5684426,34.6211488 14.577034,34.6211488 C7.64602167,34.6211488 0,28.9959133 0,18.4966317 C0,8.70837457 7.69288966,1 17.9046612,1 C20.609925,1 24.0291082,2.22773858 25.500545,3.55100412 L27.0221196,1.14111938 L28.8706803,1.14111938 L29.1082901,12.4892883 L28.016157,12.4892883 C26.3539783,7.33517448 22.6492274,2.37211456 16.0495608,2.37211456 C10.5921652,2.37211456 5.7963711,7.85623064 5.7963711,18.1655439 C5.7963711,26.8671818 10.5409374,33.1111714 16.4321344,33.1111714 C21.6072322,33.1111714 24.21985,30.1780594 24.5511957,27.1515916 L24.5511957,24.2662431 C24.5511957,23.0363335 24.21985,21.9475432 22.983843,21.4775071 C21.844842,21.0508924 19.1373982,20.765397 18.2839649,20.7198046 L18.2839649,19.6320999 L34,19.6320999 L34,20.7198046 C33.1476566,20.8598384 31.5334359,21.0042144 30.6298647,21.3819801" id="Fill-2" sketch:type="MSShapeGroup"></path>
            <path d="M113.35546,35 C109.625268,35 107.853319,32.3346784 107.149893,26.960377 C106.684154,23.2046965 105.847966,18.6402514 100.43469,18.6402514 L96.751606,18.6402514 L96.751606,30.5261452 C96.751606,31.5761204 97.0781585,32.4787498 98.1959315,32.9065983 C98.8029979,33.143443 100.761242,33.3813792 101.600642,33.4304945 L101.600642,34.4750124 L87,34.4750124 L87,33.4304945 C87.8404711,33.3813792 89.754818,33.143443 90.3608137,32.9065983 C91.4796574,32.4787498 91.8072805,31.5761204 91.8072805,30.5261452 L91.8072805,6.0874814 C91.8072805,5.041872 91.5278373,4.08794444 90.3608137,3.70921118 C89.5224839,3.4232512 87.8404711,3.09363321 87,3.04233504 L87,2 L103.278373,2 C107.991435,2 113.263383,4.13815115 113.263383,9.32144865 C113.263383,14.5025633 107.947537,16.6439888 104.632762,17.594642 L104.632762,18.0716058 C106.825482,18.3095419 110.743041,19.5450637 111.673448,23.0136927 C112.375803,25.6288077 112.656317,27.9579626 113.263383,30.2914834 C113.82334,32.4285431 115.082441,32.573706 115.780514,32.573706 C117.085653,32.573706 117.785867,31.7627584 117.785867,28.3410617 L117.785867,27.3423847 L119,27.3423847 L119,28.3410617 C119,32.8105507 117.462527,35 113.35546,35 L113.35546,35 Z M101.188394,3 L97,3 L97,17 L99.9500199,17 C104.139507,17 108,15.4250685 108,9.97532315 C108,4.52996475 104.808426,3 101.188394,3 L101.188394,3 Z" id="Fill-3" sketch:type="MSShapeGroup"></path>
            <path d="M129,34 L129,32.9707602 C129.859775,32.9223634 131.865551,32.7330779 132.485159,32.4996975 C133.635546,32.0781071 133.966735,31.2822478 133.966735,30.2519325 L133.966735,6.12018552 C133.966735,5.08987027 133.683799,4.34025677 132.485159,3.87242051 C131.62977,3.54439739 129.859775,3.07763662 129,3.02708879 L129,2 L144,2 L144,3.02708879 C143.141322,3.07763662 141.37352,3.35726289 140.512648,3.63796464 C139.319491,4.01223365 139.032168,4.8554144 139.032168,5.88788062 L139.032168,30.0185521 C139.032168,31.0456409 139.413803,31.7984809 140.512648,32.2652416 C141.08839,32.4996975 143.141322,32.9223634 144,32.9707602 L144,34 L129,34" id="Fill-4" sketch:type="MSShapeGroup"></path>
            <path d="M182.283823,34 L155,34 L155,32.9707602 C155.858754,32.9223634 157.818645,32.6879075 158.442695,32.4545271 C159.587701,32.0329367 159.922209,31.1435101 159.922209,30.1088929 L159.922209,6.26214963 C159.922209,5.23075889 159.635958,4.43382402 158.442695,3.91759091 C157.581747,3.54439739 155.858754,3.07763662 155,3.02708879 L155,2 L169.957462,2 L169.957462,3.02708879 C169.096514,3.07763662 167.327458,3.40243329 166.467607,3.68421053 C165.27215,4.05740405 164.986996,4.9973785 164.986996,6.02769376 L164.986996,28.4225314 C164.986996,32.4072058 165.514532,32.7330779 170.672542,32.7330779 C173.444027,32.7330779 176.741951,32.4996975 177.695025,31.5156282 C178.938739,30.2046111 181.376812,26.5027895 181.852801,24.9110708 L183,24.9110708 L182.283823,34" id="Fill-5" sketch:type="MSShapeGroup"></path>
            <path d="M218.283767,34 L191,34 L191,32.9707602 C191.861015,32.9223634 193.821059,32.6879075 194.442965,32.4545271 C195.586963,32.0329367 195.922595,31.1435101 195.922595,30.1088929 L195.922595,6.26214963 C195.922595,5.23075889 195.636321,4.43382402 194.442965,3.91759091 C193.579756,3.54439739 191.861015,3.07763662 191,3.02708879 L191,2 L205.953149,2 L205.953149,3.02708879 C205.096521,3.07763662 203.330617,3.40243329 202.465215,3.68421053 C201.271858,4.05740405 200.988875,4.9973785 200.988875,6.02769376 L200.988875,28.4225314 C200.988875,32.4072058 201.510968,32.7330779 206.672673,32.7330779 C209.444375,32.7330779 212.739267,32.4996975 213.696804,31.5156282 C214.939517,30.2046111 217.378878,26.5027895 217.857098,24.9110708 L219,24.9110708 L218.283767,34" id="Fill-6" sketch:type="MSShapeGroup"></path>
            <path d="M252.232759,3.96706325 C250.994726,4.66720441 250.565628,5.13719164 249.565131,6.35571688 C246.940193,9.54022989 244.746542,13.431337 241.979301,18.3506083 C241.169271,19.8498353 240.548612,22.050279 240.548612,23.5989783 L240.548612,29.8281912 C240.548612,30.9079788 240.931735,31.7049136 242.02856,32.1716744 C242.602149,32.4072058 245.081501,32.9223634 245.941885,32.9707602 L245.941885,34 L230.106876,34 L230.106876,32.9707602 C230.966166,32.9223634 233.398448,32.6427371 234.018012,32.4072058 C235.159717,31.9834644 235.496865,31.0951133 235.496865,30.064798 L235.496865,21.9104658 C235.496865,20.9726423 234.97144,19.8025139 234.255548,18.3968542 C232.060802,14.1809505 230.011643,10.4318075 227.961389,7.01176312 C227.150264,5.6050279 226.192457,4.48222088 225.051846,3.82294818 C224.191462,3.35726289 222.906359,3.07763662 222,3.02708879 L222,2 L237.353368,2 L237.353368,3.02708879 C235.688427,3.12280702 232.538063,3.54439739 232.538063,4.66720441 C232.538063,5.32325066 235.688427,11.0416079 239.931237,18.4431001 C244.364514,11.6030114 247.751319,6.02769376 247.751319,5.27808026 C247.751319,3.73260738 244.794706,3.17012839 242.602149,3.02708879 L242.602149,2 L255,2 L255,3.02708879 C254.427505,3.07763662 252.755996,3.63796464 252.232759,3.96706325" id="Fill-7" sketch:type="MSShapeGroup"></path>
        </g>
    </g>
</svg>