<?xml version="1.0" encoding="utf-8"?>
<!-- Generator: Adobe Illustrator 17.1.0, SVG Export Plug-In . SVG Version: 6.00 Build 0)  -->
<!DOCTYPE svg PUBLIC "-//W3C//DTD SVG 1.1//EN" "http://www.w3.org/Graphics/SVG/1.1/DTD/svg11.dtd">
<svg version="1.1" id="Layer_1" xmlns="http://www.w3.org/2000/svg" xmlns:xlink="http://www.w3.org/1999/xlink" x="0px" y="0px"
	 viewBox="0 0 234.4 33.3" enable-background="new 0 0 234.4 33.3" xml:space="preserve">
<g>
	<path fill="#63C083" d="M55,0c3.4,0,6.4,0.7,9.1,2.1c2.7,1.4,4.8,3.4,6.4,6c1.6,2.6,2.4,5.5,2.4,8.6c0,3-0.8,5.9-2.3,8.5
		c-1.6,2.6-3.7,4.6-6.4,6c-2.7,1.4-5.8,2.2-9.2,2.2c-3.4,0-6.4-0.7-9.2-2.2c-2.8-1.5-4.9-3.5-6.4-6c-1.5-2.6-2.3-5.4-2.3-8.5
		c0-3,0.8-5.8,2.3-8.4c1.5-2.6,3.7-4.7,6.3-6.1C48.4,0.7,51.5,0,55,0z M43.6,16.7c0,2.2,0.5,4.1,1.5,5.8c1,1.7,2.3,3.1,4.1,4
		c1.7,0.9,3.7,1.4,5.9,1.4c3.3,0,6.1-1,8.2-3.1c2.1-2.1,3.2-4.8,3.2-8.1c0-2.2-0.5-4.1-1.5-5.8c-1-1.7-2.3-3.1-4.1-4
		c-1.8-0.9-3.7-1.4-5.9-1.4c-2.2,0-4.2,0.5-5.9,1.4c-1.8,1-3.1,2.3-4.1,4C44.1,12.6,43.6,14.5,43.6,16.7z"/>
	<path fill="#63C083" d="M28.1,19.9c-1,0.5-1.3,1.3-1.3,2.3v10.1l-0.6,0.2l-2.4-2.7c-2.5,1-6.8,2.3-10.5,2.3C7,32.1,0,26.9,0,17.2
		c0-9,7.1-16.1,16.4-16.1c2.5,0,5.6,1.1,7,2.4l1.4-2.2h1.7l0.2,10.5h-1c-1.5-4.7-4.9-9.3-11-9.3c-5,0-9.4,5.1-9.4,14.5
		c0,8,4.4,13.8,9.8,13.8c4.7,0,7.1-2.7,7.4-5.5v-2.7c0-1.1-0.3-2.1-1.4-2.6c-1-0.4-3.5-0.7-4.3-0.7v-1h14.4v1
		C30.4,19.4,28.9,19.5,28.1,19.9z"/>
	<path fill="#63C083" d="M104.3,31.9c-3.5,0-5.1-2.4-5.8-7.4c-0.4-3.4-1.2-7.6-6.3-7.6h-3.4c0,4.7,0,9,0,10.9c0,1,0.3,1.8,1.3,2.2
		c0.6,0.2,2.4,0.4,3.2,0.5v1H79.7v-1c0.8,0,2.6-0.3,3.1-0.5c1-0.4,1.4-1.2,1.4-2.2c0-4.1,0-18.5,0-22.4c0-1-0.3-1.8-1.4-2.2
		C82,3,80.5,2.7,79.7,2.6v-1h15.2c4.4,0,9.3,2,9.3,6.7c0,4.7-5,6.7-8.1,7.6v0.4c2,0.2,5.7,1.3,6.6,4.5c0.7,2.4,0.9,4.5,1.5,6.7
		c0.5,2,1.7,2.1,2.4,2.1c1.2,0,1.9-0.7,1.9-3.9v-0.9h1.1v0.9C109.6,29.9,108.1,31.9,104.3,31.9z M92.6,2.9h-3.8v12.8h2.7
		c3.8,0,7.4-1.4,7.4-6.4C98.9,4.3,95.9,2.9,92.6,2.9z"/>
	<path fill="#63C083" d="M118.4,31.4v-1c0.8,0,2.6-0.2,3.2-0.4c1-0.4,1.4-1.1,1.4-2.1V5.5c0-1-0.3-1.7-1.4-2.1
		c-0.8-0.3-2.4-0.7-3.2-0.8v-1h13.7v1c-0.8,0-2.4,0.3-3.2,0.6c-1.1,0.3-1.3,1.1-1.3,2.1v22.4c0,1,0.3,1.7,1.3,2.1
		c0.5,0.2,2.4,0.6,3.2,0.7v1H118.4z"/>
	<path fill="#63C083" d="M167.4,31.4h-24.9v-1c0.8,0,2.6-0.3,3.1-0.5c1-0.4,1.3-1.2,1.3-2.2V5.6c0-1-0.3-1.7-1.3-2.2
		c-0.8-0.3-2.4-0.8-3.1-0.8v-1h13.6v1c-0.8,0-2.4,0.3-3.2,0.6c-1.1,0.3-1.3,1.2-1.3,2.2v20.8c0,3.7,0.5,4,5.2,4
		c2.5,0,5.5-0.2,6.4-1.1c1.1-1.2,3.4-4.7,3.8-6.1h1L167.4,31.4z"/>
	<path fill="#63C083" d="M200.9,31.4H176v-1c0.8,0,2.6-0.3,3.1-0.5c1-0.4,1.3-1.2,1.3-2.2V5.6c0-1-0.3-1.7-1.3-2.2
		c-0.8-0.3-2.4-0.8-3.1-0.8v-1h13.6v1c-0.8,0-2.4,0.3-3.2,0.6c-1.1,0.3-1.3,1.2-1.3,2.2v20.8c0,3.7,0.5,4,5.2,4
		c2.5,0,5.5-0.2,6.4-1.1c1.1-1.2,3.4-4.7,3.8-6.1h1L200.9,31.4z"/>
	<path fill="#63C083" d="M231.9,3.5c-1.1,0.7-1.5,1.1-2.4,2.2c-2.4,3-4.4,6.6-6.9,11.2c-0.7,1.4-1.3,3.4-1.3,4.9v5.8
		c0,1,0.4,1.7,1.4,2.2c0.5,0.2,2.8,0.7,3.6,0.7v1h-14.5v-1c0.8,0,3-0.3,3.6-0.5c1-0.4,1.4-1.2,1.4-2.2v-7.6c0-0.9-0.5-2-1.1-3.3
		c-2-3.9-3.9-7.4-5.8-10.6c-0.7-1.3-1.6-2.4-2.7-3c-0.8-0.4-2-0.7-2.8-0.7v-1h14v1c-1.5,0.1-4.4,0.5-4.4,1.5c0,0.6,2.9,5.9,6.8,12.8
		c4-6.4,7.1-11.5,7.1-12.2c0-1.4-2.7-2-4.7-2.1v-1h11.3v1C233.9,2.7,232.3,3.2,231.9,3.5z"/>
</g>
</svg>
