<?xml version="1.0" encoding="utf-8"?>
<!-- Generator: Adobe Illustrator 17.1.0, SVG Export Plug-In . SVG Version: 6.00 Build 0)  -->
<!DOCTYPE svg PUBLIC "-//W3C//DTD SVG 1.1//EN" "http://www.w3.org/Graphics/SVG/1.1/DTD/svg11.dtd">
<svg version="1.1" id="Layer_1" xmlns:sketch="http://www.bohemiancoding.com/sketch/ns"
	 xmlns="http://www.w3.org/2000/svg" xmlns:xlink="http://www.w3.org/1999/xlink" x="0px" y="0px" viewBox="37.7 5.2 242.7 11"
	 enable-background="new 37.7 5.2 242.7 11" xml:space="preserve">
<title>Slice 1</title>
<desc>Created with Sketch.</desc>
<g id="Page-1" sketch:type="MSPage">
	<g enable-background="new    ">
		<path fill="#63BF82" d="M45.2,10.9c0.6,0.3,1,0.6,1.2,1c0.3,0.4,0.4,0.8,0.4,1.2c0,0.6-0.2,1.1-0.5,1.6c-0.3,0.4-0.8,0.8-1.4,1
			c-0.6,0.2-1.4,0.3-2.2,0.3c-0.2,0-0.6,0-1.1,0c-0.5,0-1,0-1.6,0c-1,0-1.8,0-2.3,0v-0.3c0.3,0,0.6-0.1,0.7-0.1
			c0.2-0.1,0.3-0.2,0.3-0.4c0.1-0.2,0.1-0.4,0.1-0.8V7c0-0.4,0-0.6-0.1-0.8c-0.1-0.2-0.2-0.3-0.3-0.4c-0.2-0.1-0.4-0.1-0.7-0.1V5.4
			c0.5,0,1.3,0,2.3,0c0.4,0,0.8,0,1.3,0s0.8,0,1,0c0.8,0,1.5,0.1,2,0.3c0.6,0.2,1,0.5,1.2,0.8C45.9,6.9,46,7.3,46,7.8
			c0,0.4-0.1,0.7-0.3,1.1c-0.2,0.4-0.5,0.7-1,0.9c-0.5,0.3-1,0.5-1.7,0.6v0C43.9,10.5,44.6,10.7,45.2,10.9z M43.2,9.7
			c0.3-0.4,0.4-1,0.4-1.8c0-0.8-0.1-1.3-0.4-1.7c-0.2-0.4-0.6-0.6-1.1-0.6c-0.3,0-0.5,0-0.6,0.1c-0.1,0.1-0.2,0.2-0.3,0.4
			c0,0.2-0.1,0.4-0.1,0.8v3.4h0.6C42.5,10.4,43,10.1,43.2,9.7z M41.3,15.2c0.1,0.2,0.1,0.3,0.3,0.4s0.4,0.1,0.7,0.1
			c1.4,0,2.1-0.9,2.1-2.6c0-0.8-0.2-1.4-0.6-1.8c-0.4-0.4-1-0.6-1.9-0.6h-0.6v3.8C41.2,14.8,41.2,15,41.3,15.2z"/>
		<path fill="#63BF82" d="M59.7,13.7c0,0.9,0,1.7,0.1,2.3c-0.7,0-1.8,0-3.4,0c-2.2,0-3.8,0-4.9,0v-0.3c0.3,0,0.6-0.1,0.7-0.1
			c0.2-0.1,0.3-0.2,0.3-0.4c0.1-0.2,0.1-0.4,0.1-0.8V7c0-0.4,0-0.6-0.1-0.8c-0.1-0.2-0.2-0.3-0.3-0.4c-0.2-0.1-0.4-0.1-0.7-0.1V5.4
			c1.1,0,2.7,0,4.9,0c1.5,0,2.5,0,3.1,0c-0.1,0.8-0.1,1.6-0.1,2.2c0,0.4,0,0.8,0,1h-0.3c-0.1-0.7-0.3-1.3-0.5-1.7S58.1,6.2,57.8,6
			s-0.7-0.3-1.2-0.3H56c-0.3,0-0.5,0-0.7,0.1c-0.1,0.1-0.2,0.1-0.3,0.3C55,6.2,55,6.5,55,6.8v3.7h0.5c0.5,0,0.9-0.2,1.2-0.6
			s0.5-0.9,0.6-1.4h0.3c0,0.5-0.1,1-0.1,1.4l0,0.7c0,0.5,0,1.2,0.1,2.1h-0.3c-0.2-1.3-0.8-2-1.8-2H55v3.8c0,0.3,0,0.6,0.1,0.7
			c0,0.1,0.1,0.2,0.3,0.3c0.1,0.1,0.4,0.1,0.7,0.1h0.7c0.7,0,1.3-0.2,1.7-0.7c0.4-0.5,0.7-1.3,0.9-2.5h0.3
			C59.7,12.8,59.7,13.2,59.7,13.7z"/>
		<path fill="#63BF82" d="M64.7,7.9c0-0.7,0-1.5-0.1-2.5c0.9,0,2.5,0,4.6,0s3.7,0,4.6,0c-0.1,1-0.1,1.9-0.1,2.5c0,0.4,0,0.8,0.1,1.1
			h-0.3c-0.2-0.8-0.4-1.5-0.6-2c-0.2-0.5-0.5-0.8-0.9-1c-0.3-0.2-0.7-0.3-1.2-0.3h-0.3v8.6c0,0.4,0,0.7,0.1,0.9
			c0.1,0.2,0.2,0.3,0.5,0.4c0.2,0.1,0.6,0.1,1,0.1V16c-1.3,0-2.2,0-2.8,0c-0.6,0-1.5,0-2.7,0v-0.3c0.5,0,0.8,0,1-0.1
			c0.2-0.1,0.4-0.2,0.5-0.4C68,15,68,14.7,68,14.3V5.7h-0.3c-0.5,0-0.9,0.1-1.2,0.3c-0.3,0.2-0.6,0.6-0.9,1c-0.2,0.5-0.4,1.1-0.6,2
			h-0.3C64.7,8.7,64.7,8.4,64.7,7.9z"/>
		<path fill="#63BF82" d="M86.7,15.5c0.2,0.1,0.3,0.2,0.5,0.2V16c-0.6,0-1.4,0-2.3,0c-1,0-1.8,0-2.3,0v-0.3c0.4,0,0.6-0.1,0.8-0.1
			c0.2-0.1,0.2-0.2,0.2-0.4c0-0.2-0.1-0.4-0.2-0.7L82.6,12h-3.3L79,13c-0.3,0.7-0.4,1.3-0.4,1.7c0,0.4,0.1,0.6,0.3,0.8
			s0.6,0.2,1,0.2V16c-0.7,0-1.3,0-1.9,0c-0.5,0-0.8,0-1.1,0v-0.3c0.5-0.1,0.9-0.6,1.3-1.6l3.4-8.8c0.2,0,0.3,0,0.5,0
			c0.2,0,0.4,0,0.5,0l3.6,9.4C86.4,15.1,86.6,15.3,86.7,15.5z M81.1,7.6l-1.6,4h3L81.1,7.6z"/>
		<path fill="#63BF82" d="M99,12.6v-1.2h5.4v1.2H99z"/>
		<path fill="#63BF82" d="M118.3,14.8c0.4,0.7,1.1,1,2,1c0.4,0,0.7-0.1,0.9-0.2c0.3-0.1,0.5-0.3,0.7-0.6c0.2-0.3,0.2-0.6,0.2-0.9
			c0-0.4-0.1-0.7-0.3-1.1c-0.2-0.3-0.4-0.6-0.7-0.8c-0.3-0.3-0.7-0.6-1.2-0.9c-0.6-0.4-1.1-0.7-1.4-1c-0.4-0.3-0.6-0.6-0.9-1
			c-0.2-0.4-0.3-0.9-0.3-1.4c0-0.6,0.2-1.1,0.5-1.5c0.3-0.4,0.7-0.7,1.2-0.9s1.1-0.3,1.7-0.3c0.4,0,0.7,0,0.9,0.1
			c0.3,0.1,0.5,0.1,0.7,0.2c0.2,0.1,0.4,0.2,0.6,0.3c0.2,0.1,0.4,0.2,0.5,0.2c0.1,0,0.2-0.1,0.2-0.2c0-0.1,0.1-0.3,0.1-0.5h0.3
			c0,0.7-0.1,1.8-0.1,3.4h-0.3c0-0.5-0.2-1.1-0.4-1.5c-0.2-0.5-0.5-0.9-0.9-1.2c-0.4-0.3-0.8-0.5-1.3-0.5c-0.3,0-0.6,0.1-0.9,0.2
			c-0.3,0.1-0.4,0.3-0.6,0.5c-0.1,0.2-0.2,0.5-0.2,0.8c0,0.5,0.1,0.9,0.4,1.2s0.7,0.6,1.2,1c0.5,0.3,0.8,0.5,1,0.7
			c0.6,0.4,1,0.7,1.4,1s0.6,0.6,0.8,1s0.3,0.8,0.3,1.3c0,0.6-0.2,1.2-0.5,1.6s-0.8,0.8-1.3,1c-0.6,0.2-1.2,0.3-1.9,0.3
			c-0.6,0-1-0.1-1.4-0.2c-0.4-0.1-0.7-0.2-1-0.4c-0.2-0.1-0.4-0.2-0.5-0.2c-0.1,0-0.2,0.1-0.2,0.2c0,0.1-0.1,0.3-0.1,0.5h-0.3
			c0-0.6,0.1-2,0.1-4h0.3C117.6,13.2,117.9,14.1,118.3,14.8z"/>
		<path fill="#63BF82" d="M138.3,15.5c0.2,0.1,0.3,0.2,0.5,0.2V16c-0.6,0-1.4,0-2.3,0c-1,0-1.8,0-2.3,0v-0.3c0.4,0,0.6-0.1,0.8-0.1
			c0.2-0.1,0.2-0.2,0.2-0.4c0-0.2-0.1-0.4-0.2-0.7l-0.9-2.5h-3.3l-0.4,1c-0.3,0.7-0.4,1.3-0.4,1.7c0,0.4,0.1,0.6,0.3,0.8
			s0.6,0.2,1,0.2V16c-0.7,0-1.3,0-1.9,0c-0.5,0-0.8,0-1.1,0v-0.3c0.5-0.1,0.9-0.6,1.3-1.6l3.4-8.8c0.2,0,0.3,0,0.5,0
			c0.2,0,0.4,0,0.5,0l3.6,9.4C137.9,15.1,138.1,15.3,138.3,15.5z M132.6,7.6l-1.6,4h3L132.6,7.6z"/>
		<path fill="#63BF82" d="M151.8,5.9c-0.2,0.1-0.3,0.3-0.3,0.6c-0.1,0.3-0.1,0.6-0.1,1.2V16c-0.1,0-0.2,0-0.4,0c-0.2,0-0.3,0-0.4,0
			l-6.5-8.2v5.8c0,0.6,0,1,0.1,1.3c0.1,0.3,0.2,0.5,0.4,0.6c0.2,0.1,0.5,0.2,1,0.3V16c-0.4,0-0.9,0-1.6,0c-0.6,0-1,0-1.3,0v-0.3
			c0.3,0,0.6-0.1,0.7-0.3c0.2-0.1,0.3-0.3,0.3-0.6c0.1-0.3,0.1-0.6,0.1-1.2V7c0-0.4,0-0.6-0.1-0.8c-0.1-0.2-0.2-0.3-0.3-0.4
			c-0.2-0.1-0.4-0.1-0.7-0.1V5.4c0.3,0,0.8,0,1.3,0c0.5,0,0.9,0,1.3,0l5.8,7.2V7.8c0-0.6,0-1-0.1-1.3c-0.1-0.3-0.2-0.5-0.4-0.6
			c-0.2-0.1-0.5-0.2-1-0.3V5.4c0.4,0,0.9,0,1.6,0c0.6,0,1,0,1.3,0v0.3C152.2,5.7,151.9,5.8,151.8,5.9z"/>
		<path fill="#63BF82" d="M169.3,5.4c1.5,0,2.5,0,3.1,0c-0.1,0.9-0.1,1.6-0.1,2.3c0,0.5,0,0.9,0,1.1H172c-0.1-0.8-0.3-1.4-0.5-1.8
			s-0.5-0.8-0.8-1c-0.3-0.2-0.7-0.3-1.2-0.3H169c-0.3,0-0.5,0-0.7,0.1c-0.1,0.1-0.2,0.1-0.3,0.3c0,0.1-0.1,0.4-0.1,0.7v3.8h0.5
			c0.5,0,0.9-0.2,1.2-0.6c0.3-0.4,0.5-0.9,0.6-1.4h0.3c0,0.5-0.1,1-0.1,1.4l0,0.7c0,0.5,0,1.2,0.1,2.1h-0.4c-0.2-1.3-0.8-2-1.8-2
			h-0.5v3.4c0,0.4,0,0.7,0.1,0.9c0.1,0.2,0.2,0.3,0.5,0.4c0.2,0.1,0.6,0.1,1,0.1V16c-1.2,0-2.1,0-2.7,0c-0.3,0-1.1,0-2.4,0v-0.3
			c0.3,0,0.6-0.1,0.7-0.1c0.2-0.1,0.3-0.2,0.3-0.4c0.1-0.2,0.1-0.4,0.1-0.8V7c0-0.4,0-0.6-0.1-0.8c-0.1-0.2-0.2-0.3-0.3-0.4
			c-0.2-0.1-0.4-0.1-0.7-0.1V5.4C165.5,5.4,167.1,5.4,169.3,5.4z"/>
		<path fill="#63BF82" d="M186.3,16c-0.3,0.1-0.7,0.2-1.1,0.2c-0.6,0-1-0.1-1.4-0.4c-0.3-0.2-0.6-0.7-0.7-1.3l-0.3-1.5
			c-0.1-0.5-0.2-0.9-0.3-1.2c-0.1-0.3-0.2-0.5-0.4-0.7c-0.2-0.2-0.4-0.3-0.7-0.3h-1v3.4c0,0.4,0,0.7,0.1,0.8
			c0.1,0.2,0.2,0.3,0.3,0.4c0.2,0.1,0.4,0.1,0.7,0.1V16c-0.5,0-1.3,0-2.3,0c-1.1,0-1.9,0-2.4,0v-0.3c0.3,0,0.6-0.1,0.7-0.1
			c0.2-0.1,0.3-0.2,0.3-0.4c0.1-0.2,0.1-0.4,0.1-0.8V7c0-0.4,0-0.6-0.1-0.8c-0.1-0.2-0.2-0.3-0.3-0.4c-0.2-0.1-0.4-0.1-0.7-0.1V5.4
			c0.5,0,1.3,0,2.3,0c0.4,0,0.8,0,1.3,0s0.8,0,1,0c1.4,0,2.4,0.2,3.1,0.7c0.7,0.5,1,1.1,1,1.9c0,0.4-0.1,0.9-0.3,1.3s-0.6,0.7-1.1,1
			c-0.5,0.3-1.2,0.5-2,0.6h0c0.6,0.1,1.1,0.2,1.5,0.3c0.4,0.2,0.7,0.4,0.9,0.6c0.2,0.3,0.4,0.6,0.5,1l0.3,1.5
			c0.1,0.4,0.2,0.7,0.3,0.8c0.1,0.2,0.3,0.2,0.4,0.2c0.1,0,0.2,0,0.3-0.1s0.2-0.1,0.3-0.3l0.2,0.2C187,15.6,186.7,15.9,186.3,16z
			 M182.5,10.3c0.3-0.2,0.5-0.5,0.7-0.9c0.1-0.4,0.2-0.8,0.2-1.3c0-0.8-0.1-1.4-0.4-1.9c-0.3-0.4-0.8-0.6-1.4-0.6
			c-0.3,0-0.5,0-0.6,0.1c-0.1,0.1-0.2,0.2-0.3,0.4c0,0.2-0.1,0.4-0.1,0.8v3.7h0.6C181.8,10.7,182.2,10.6,182.5,10.3z"/>
		<path fill="#63BF82" d="M200.3,15.5c0.2,0.1,0.3,0.2,0.5,0.2V16c-0.6,0-1.4,0-2.3,0c-1,0-1.8,0-2.3,0v-0.3c0.4,0,0.6-0.1,0.8-0.1
			c0.2-0.1,0.2-0.2,0.2-0.4c0-0.2-0.1-0.4-0.2-0.7l-0.9-2.5h-3.3l-0.4,1c-0.3,0.7-0.4,1.3-0.4,1.7c0,0.4,0.1,0.6,0.3,0.8
			s0.6,0.2,1,0.2V16c-0.7,0-1.3,0-1.9,0c-0.5,0-0.8,0-1.1,0v-0.3c0.5-0.1,0.9-0.6,1.3-1.6l3.4-8.8c0.2,0,0.3,0,0.5,0
			c0.2,0,0.4,0,0.5,0l3.6,9.4C200,15.1,200.1,15.3,200.3,15.5z M194.6,7.6l-1.6,4h3L194.6,7.6z"/>
		<path fill="#63BF82" d="M213.8,5.9c-0.2,0.1-0.3,0.3-0.3,0.6c-0.1,0.3-0.1,0.6-0.1,1.2V16c-0.1,0-0.2,0-0.4,0c-0.2,0-0.3,0-0.4,0
			l-6.5-8.2v5.8c0,0.6,0,1,0.1,1.3c0.1,0.3,0.2,0.5,0.4,0.6c0.2,0.1,0.5,0.2,1,0.3V16c-0.4,0-0.9,0-1.6,0c-0.6,0-1,0-1.3,0v-0.3
			c0.3,0,0.6-0.1,0.7-0.3c0.2-0.1,0.3-0.3,0.3-0.6c0.1-0.3,0.1-0.6,0.1-1.2V7c0-0.4,0-0.6-0.1-0.8c-0.1-0.2-0.2-0.3-0.3-0.4
			c-0.2-0.1-0.4-0.1-0.7-0.1V5.4c0.3,0,0.8,0,1.3,0c0.5,0,0.9,0,1.3,0l5.8,7.2V7.8c0-0.6,0-1-0.1-1.3c-0.1-0.3-0.2-0.5-0.4-0.6
			c-0.2-0.1-0.5-0.2-1-0.3V5.4c0.4,0,0.9,0,1.6,0c0.6,0,1,0,1.3,0v0.3C214.2,5.7,214,5.8,213.8,5.9z"/>
		<path fill="#63BF82" d="M227.9,15.3c-0.1-0.1-0.1-0.2-0.2-0.2c-0.1,0-0.2,0-0.3,0.1c-0.3,0.2-0.6,0.4-0.8,0.5
			c-0.3,0.1-0.5,0.2-0.9,0.3c-0.3,0.1-0.7,0.1-1.1,0.1c-1.1,0-2-0.2-2.8-0.6c-0.8-0.4-1.4-1.1-1.9-1.9c-0.4-0.8-0.7-1.8-0.7-2.9
			c0-1.1,0.2-2.1,0.7-2.9s1.1-1.5,1.9-2s1.7-0.7,2.8-0.7c0.6,0,1.1,0.1,1.5,0.3c0.4,0.2,0.8,0.4,1.2,0.7c0.1,0.1,0.2,0.1,0.3,0.1
			c0.2,0,0.3-0.3,0.4-0.9h0.3c0,0.7-0.1,1.9-0.1,3.6h-0.3c-0.1-0.5-0.1-0.9-0.2-1.2c-0.1-0.3-0.2-0.6-0.3-0.8
			c-0.1-0.2-0.3-0.5-0.6-0.7c-0.2-0.2-0.5-0.4-0.9-0.5c-0.3-0.1-0.7-0.2-1-0.2c-0.7,0-1.3,0.2-1.7,0.7s-0.8,1.1-1,1.9
			s-0.3,1.6-0.3,2.6s0.1,1.8,0.3,2.6s0.5,1.4,1,1.9c0.5,0.5,1,0.7,1.7,0.7c0.3,0,0.7-0.1,1-0.2s0.6-0.3,0.8-0.5
			c0.3-0.2,0.5-0.4,0.6-0.7c0.1-0.3,0.3-0.6,0.3-0.9c0.1-0.3,0.1-0.8,0.2-1.3h0.3c0,1.8,0,3.1,0.1,3.8H228
			C228,15.7,227.9,15.5,227.9,15.3z"/>
		<path fill="#63BF82" d="M237.3,5.8c-0.2,0.1-0.3,0.2-0.3,0.4C237,6.3,237,6.6,237,7v7.4c0,0.4,0,0.7,0.1,0.8
			c0.1,0.2,0.2,0.3,0.3,0.4c0.2,0.1,0.4,0.1,0.7,0.1V16c-0.5,0-1.3,0-2.3,0c-1.1,0-1.9,0-2.4,0v-0.3c0.3,0,0.6-0.1,0.7-0.1
			c0.2-0.1,0.3-0.2,0.3-0.4c0.1-0.2,0.1-0.4,0.1-0.8V7c0-0.4,0-0.6-0.1-0.8c-0.1-0.2-0.2-0.3-0.3-0.4c-0.2-0.1-0.4-0.1-0.7-0.1V5.4
			c0.5,0,1.3,0,2.4,0c1,0,1.7,0,2.3,0v0.3C237.7,5.7,237.5,5.7,237.3,5.8z"/>
		<path fill="#63BF82" d="M244.3,14.8c0.4,0.7,1.1,1,2,1c0.4,0,0.7-0.1,0.9-0.2c0.3-0.1,0.5-0.3,0.7-0.6c0.2-0.3,0.2-0.6,0.2-0.9
			c0-0.4-0.1-0.7-0.3-1.1c-0.2-0.3-0.4-0.6-0.7-0.8c-0.3-0.3-0.7-0.6-1.2-0.9c-0.6-0.4-1.1-0.7-1.4-1c-0.4-0.3-0.6-0.6-0.9-1
			c-0.2-0.4-0.3-0.9-0.3-1.4c0-0.6,0.2-1.1,0.5-1.5c0.3-0.4,0.7-0.7,1.2-0.9s1.1-0.3,1.7-0.3c0.4,0,0.7,0,0.9,0.1
			c0.3,0.1,0.5,0.1,0.7,0.2c0.2,0.1,0.4,0.2,0.6,0.3c0.2,0.1,0.4,0.2,0.5,0.2c0.1,0,0.2-0.1,0.2-0.2c0-0.1,0.1-0.3,0.1-0.5h0.3
			c0,0.7-0.1,1.8-0.1,3.4h-0.3c0-0.5-0.2-1.1-0.4-1.5c-0.2-0.5-0.5-0.9-0.9-1.2c-0.4-0.3-0.8-0.5-1.3-0.5c-0.3,0-0.6,0.1-0.9,0.2
			c-0.3,0.1-0.4,0.3-0.6,0.5c-0.1,0.2-0.2,0.5-0.2,0.8c0,0.5,0.1,0.9,0.4,1.2s0.7,0.6,1.2,1c0.5,0.3,0.8,0.5,1,0.7
			c0.6,0.4,1,0.7,1.4,1s0.6,0.6,0.8,1s0.3,0.8,0.3,1.3c0,0.6-0.2,1.2-0.5,1.6s-0.8,0.8-1.3,1c-0.6,0.2-1.2,0.3-1.9,0.3
			c-0.6,0-1-0.1-1.4-0.2c-0.4-0.1-0.7-0.2-1-0.4c-0.2-0.1-0.4-0.2-0.5-0.2c-0.1,0-0.2,0.1-0.2,0.2c0,0.1-0.1,0.3-0.1,0.5h-0.3
			c0-0.6,0.1-2,0.1-4h0.3C243.6,13.2,243.9,14.1,244.3,14.8z"/>
		<path fill="#63BF82" d="M264.1,15.3c-0.1-0.1-0.1-0.2-0.2-0.2c-0.1,0-0.2,0-0.3,0.1c-0.3,0.2-0.6,0.4-0.8,0.5
			c-0.3,0.1-0.5,0.2-0.9,0.3c-0.3,0.1-0.7,0.1-1.1,0.1c-1.1,0-2-0.2-2.8-0.6c-0.8-0.4-1.4-1.1-1.9-1.9c-0.4-0.8-0.7-1.8-0.7-2.9
			c0-1.1,0.2-2.1,0.7-2.9s1.1-1.5,1.9-2s1.7-0.7,2.8-0.7c0.6,0,1.1,0.1,1.5,0.3c0.4,0.2,0.8,0.4,1.2,0.7c0.1,0.1,0.2,0.1,0.3,0.1
			c0.2,0,0.3-0.3,0.4-0.9h0.3c0,0.7-0.1,1.9-0.1,3.6h-0.3c-0.1-0.5-0.1-0.9-0.2-1.2c-0.1-0.3-0.2-0.6-0.3-0.8
			c-0.1-0.2-0.3-0.5-0.6-0.7c-0.2-0.2-0.5-0.4-0.9-0.5c-0.3-0.1-0.7-0.2-1-0.2c-0.7,0-1.3,0.2-1.7,0.7s-0.8,1.1-1,1.9
			s-0.3,1.6-0.3,2.6s0.1,1.8,0.3,2.6s0.5,1.4,1,1.9c0.5,0.5,1,0.7,1.7,0.7c0.3,0,0.7-0.1,1-0.2s0.6-0.3,0.8-0.5
			c0.3-0.2,0.5-0.4,0.6-0.7c0.1-0.3,0.3-0.6,0.3-0.9c0.1-0.3,0.1-0.8,0.2-1.3h0.3c0,1.8,0,3.1,0.1,3.8h-0.3
			C264.2,15.7,264.2,15.5,264.1,15.3z"/>
		<path fill="#63BF82" d="M277.9,5.8c0.8,0.4,1.4,1.1,1.9,1.9c0.4,0.8,0.7,1.8,0.7,2.9c0,1.1-0.2,2.1-0.7,2.9
			c-0.5,0.8-1.1,1.5-1.9,2s-1.7,0.7-2.7,0.7c-1.1,0-2-0.2-2.8-0.6c-0.8-0.4-1.4-1.1-1.9-1.9c-0.4-0.8-0.7-1.8-0.7-2.9
			c0-1.1,0.2-2.1,0.7-2.9s1.1-1.5,1.9-2s1.7-0.7,2.8-0.7C276.2,5.2,277.1,5.4,277.9,5.8z M273.6,6.1c-0.4,0.4-0.7,1.1-1,1.9
			c-0.2,0.8-0.3,1.7-0.3,2.7c0,1,0.1,2,0.4,2.7s0.6,1.4,1,1.8s0.9,0.6,1.5,0.6c0.6,0,1-0.2,1.5-0.7c0.4-0.4,0.7-1.1,1-1.9
			c0.2-0.8,0.3-1.7,0.3-2.7c0-1-0.1-1.9-0.4-2.7c-0.3-0.8-0.6-1.4-1-1.8c-0.4-0.4-0.9-0.6-1.4-0.6C274.5,5.4,274,5.7,273.6,6.1z"/>
	</g>
</g>
</svg>
