<?xml version="1.0" encoding="UTF-8" standalone="no"?>
<svg width="134px" height="234px" viewBox="0 0 134 234" version="1.1" xmlns="http://www.w3.org/2000/svg" xmlns:xlink="http://www.w3.org/1999/xlink" xmlns:sketch="http://www.bohemiancoding.com/sketch/ns">
    <!-- Generator: Sketch 3.0.4 (8054) - http://www.bohemiancoding.com/sketch -->
    <title>Slice 2</title>
    <desc>Created with Sketch.</desc>
    <defs></defs>
    <g id="Page-1" stroke="none" stroke-width="1" fill="none" fill-rule="evenodd" sketch:type="MSPage">
        <g id="Imported-Layers" sketch:type="MSLayerGroup" fill="#63BF82">
            <path d="M102.374213,234 L28.3079467,234 C12.20472,234 -0.893333333,220.904931 -0.893333333,204.805374 L-0.893333333,60.7453282 C-0.893333333,56.2064427 0.125066667,51.8408244 2.13506667,47.7681527 C2.57101333,46.8857405 3.64301333,46.5213435 4.52741333,46.9571908 C5.4136,47.3930382 5.77629333,48.4647939 5.34034667,49.3489924 C3.57512,52.9232977 2.68,56.7583969 2.68,60.7453282 L2.68,204.805374 C2.68,218.932901 14.1772,230.427481 28.3079467,230.427481 L102.374213,230.427481 C116.50496,230.427481 128.00216,218.932901 128.00216,204.805374 L128.00216,60.7453282 C128.00216,56.7405344 127.067733,52.7803969 125.302507,49.2936183 C124.85584,48.4129924 125.2096,47.3394504 126.08864,46.8928855 C126.969467,46.4463206 128.043253,46.7982137 128.48992,47.6788397 C130.507067,51.6639847 131.575493,56.1832214 131.575493,60.7453282 L131.575493,204.805374 C131.575493,220.904931 118.475653,234 102.374213,234" id="Fill-1" sketch:type="MSShapeGroup"></path>
            <path d="M112.869093,215.397893 L94.6004267,215.397893 C93.6141867,215.397893 92.81376,214.597649 92.81376,213.611634 L92.81376,188.921954 C92.81376,187.935939 93.6141867,187.135695 94.6004267,187.135695 L112.869093,187.135695 C113.85712,187.135695 114.65576,187.935939 114.65576,188.921954 L114.65576,213.611634 C114.65576,214.597649 113.85712,215.397893 112.869093,215.397893 L112.869093,215.397893 Z M96.3870933,211.825374 L111.082427,211.825374 L111.082427,190.708214 L96.3870933,190.708214 L96.3870933,211.825374 Z" id="Fill-2" sketch:type="MSShapeGroup"></path>
            <path d="M65.3294667,96.3204733 C65.22048,96.3204733 65.11328,96.311542 65.0042933,96.2901069 C64.8631467,96.2668855 64.7237867,96.2275878 64.5897867,96.1686412 C61.4345333,95.1558321 10.5341867,78.7883359 9.52114667,78.3864275 C8.40090667,77.9452214 7.65944,77.6540611 1.09165333,44.4867939 C1.07557333,44.4028397 1.06485333,44.3206718 1.06128,44.2367176 L0.42344,32.4920611 C0.39664,32.0008397 0.571733333,31.5221221 0.909413333,31.1666565 C1.24709333,30.8094046 1.71698667,30.6075573 2.20653333,30.6075573 L128.42024,30.6075573 C128.909787,30.6075573 129.37968,30.8094046 129.71736,31.1666565 C130.05504,31.5221221 130.230133,32.0008397 130.203333,32.4920611 L129.56728,44.2367176 C129.56192,44.3206718 129.5512,44.4028397 129.53512,44.4867939 C122.96912,77.6540611 122.225867,77.9452214 121.102053,78.3882137 C120.09616,78.7865496 69.56208,95.0379389 66.07272,96.1579237 C65.8386667,96.2650992 65.58496,96.3204733 65.3294667,96.3204733 L65.3294667,96.3204733 Z M11.4668267,75.2783359 C17.2931467,77.2039237 59.6764533,90.840229 65.3133867,92.6497099 C70.94496,90.8420153 113.260373,77.227145 119.161733,75.2765496 C120.198,72.1184427 123.3604,57.2639084 126.004667,43.9151908 L126.53352,34.1800763 L4.09325333,34.1800763 L4.62210667,43.9151908 C7.26637333,57.2639084 10.4287733,72.1220153 11.4668267,75.2783359 L11.4668267,75.2783359 Z" id="Fill-3" sketch:type="MSShapeGroup"></path>
            <path d="M5.6816,119.304275 C5.1992,119.304275 4.73466667,119.107786 4.41306667,118.78626 C4.0736,118.44687 3.87706667,117.982443 3.87706667,117.518015 C3.87706667,117.053588 4.0736,116.58916 4.41306667,116.249771 C5.07413333,115.588855 6.2712,115.588855 6.93226667,116.249771 C7.27173333,116.58916 7.46826667,117.053588 7.46826667,117.518015 C7.46826667,117.982443 7.27173333,118.44687 6.93226667,118.78626 C6.61066667,119.107786 6.14613333,119.304275 5.6816,119.304275" id="Fill-4" sketch:type="MSShapeGroup"></path>
            <path d="M117.116,117.518015 C117.116,116.535573 117.902133,115.731756 118.902667,115.731756 C119.885333,115.731756 120.689333,116.535573 120.689333,117.518015 C120.689333,118.500458 119.885333,119.304275 118.902667,119.304275 C117.902133,119.304275 117.116,118.500458 117.116,117.518015 L117.116,117.518015 Z M110.022933,117.518015 C110.022933,116.535573 110.826933,115.731756 111.8096,115.731756 C112.810133,115.731756 113.614133,116.535573 113.614133,117.518015 C113.614133,118.500458 112.810133,119.304275 111.8096,119.304275 C110.826933,119.304275 110.022933,118.500458 110.022933,117.518015 L110.022933,117.518015 Z M102.947733,117.518015 C102.947733,116.535573 103.751733,115.731756 104.7344,115.731756 C105.734933,115.731756 106.521067,116.535573 106.521067,117.518015 C106.521067,118.500458 105.734933,119.304275 104.7344,119.304275 C103.751733,119.304275 102.947733,118.500458 102.947733,117.518015 L102.947733,117.518015 Z M95.8725333,117.518015 C95.8725333,116.535573 96.6765333,115.731756 97.6592,115.731756 C98.6418667,115.731756 99.4458667,116.535573 99.4458667,117.518015 C99.4458667,118.500458 98.6418667,119.304275 97.6592,119.304275 C96.6765333,119.304275 95.8725333,118.500458 95.8725333,117.518015 L95.8725333,117.518015 Z M88.7973333,117.518015 C88.7973333,116.535573 89.6013333,115.731756 90.584,115.731756 C91.5666667,115.731756 92.3706667,116.535573 92.3706667,117.518015 C92.3706667,118.500458 91.5666667,119.304275 90.584,119.304275 C89.6013333,119.304275 88.7973333,118.500458 88.7973333,117.518015 L88.7973333,117.518015 Z M81.7221333,117.518015 C81.7221333,116.535573 82.5261333,115.731756 83.5088,115.731756 C84.4914667,115.731756 85.2954667,116.535573 85.2954667,117.518015 C85.2954667,118.500458 84.4914667,119.304275 83.5088,119.304275 C82.5261333,119.304275 81.7221333,118.500458 81.7221333,117.518015 L81.7221333,117.518015 Z M74.6469333,117.518015 C74.6469333,116.535573 75.4509333,115.731756 76.4336,115.731756 C77.4162667,115.731756 78.2202667,116.535573 78.2202667,117.518015 C78.2202667,118.500458 77.4162667,119.304275 76.4336,119.304275 C75.4509333,119.304275 74.6469333,118.500458 74.6469333,117.518015 L74.6469333,117.518015 Z M67.5717333,117.518015 C67.5717333,116.535573 68.3757333,115.731756 69.3584,115.731756 C70.3410667,115.731756 71.1450667,116.535573 71.1450667,117.518015 C71.1450667,118.500458 70.3410667,119.304275 69.3584,119.304275 C68.3757333,119.304275 67.5717333,118.500458 67.5717333,117.518015 L67.5717333,117.518015 Z M60.4965333,117.518015 C60.4965333,116.535573 61.3005333,115.731756 62.2832,115.731756 C63.2658667,115.731756 64.0698667,116.535573 64.0698667,117.518015 C64.0698667,118.500458 63.2658667,119.304275 62.2832,119.304275 C61.3005333,119.304275 60.4965333,118.500458 60.4965333,117.518015 L60.4965333,117.518015 Z M53.4213333,117.518015 C53.4213333,116.535573 54.2253333,115.731756 55.208,115.731756 C56.1906667,115.731756 56.9946667,116.535573 56.9946667,117.518015 C56.9946667,118.500458 56.1906667,119.304275 55.208,119.304275 C54.2253333,119.304275 53.4213333,118.500458 53.4213333,117.518015 L53.4213333,117.518015 Z M46.3461333,117.518015 C46.3461333,116.535573 47.1501333,115.731756 48.1328,115.731756 C49.1154667,115.731756 49.9194667,116.535573 49.9194667,117.518015 C49.9194667,118.500458 49.1154667,119.304275 48.1328,119.304275 C47.1501333,119.304275 46.3461333,118.500458 46.3461333,117.518015 L46.3461333,117.518015 Z M39.2709333,117.518015 C39.2709333,116.535573 40.0570667,115.731756 41.0576,115.731756 C42.0402667,115.731756 42.8442667,116.535573 42.8442667,117.518015 C42.8442667,118.500458 42.0402667,119.304275 41.0576,119.304275 C40.0570667,119.304275 39.2709333,118.500458 39.2709333,117.518015 L39.2709333,117.518015 Z M32.1957333,117.518015 C32.1957333,116.535573 32.9818667,115.731756 33.9824,115.731756 C34.9650667,115.731756 35.7690667,116.535573 35.7690667,117.518015 C35.7690667,118.500458 34.9650667,119.304275 33.9824,119.304275 C32.9818667,119.304275 32.1957333,118.500458 32.1957333,117.518015 L32.1957333,117.518015 Z M25.1205333,117.518015 C25.1205333,116.535573 25.9066667,115.731756 26.9072,115.731756 C27.8898667,115.731756 28.6938667,116.535573 28.6938667,117.518015 C28.6938667,118.500458 27.8898667,119.304275 26.9072,119.304275 C25.9066667,119.304275 25.1205333,118.500458 25.1205333,117.518015 L25.1205333,117.518015 Z M18.0453333,117.518015 C18.0453333,116.535573 18.8314667,115.731756 19.832,115.731756 C20.8146667,115.731756 21.6186667,116.535573 21.6186667,117.518015 C21.6186667,118.500458 20.8146667,119.304275 19.832,119.304275 C18.8314667,119.304275 18.0453333,118.500458 18.0453333,117.518015 L18.0453333,117.518015 Z M10.9701333,117.518015 C10.9701333,116.535573 11.7562667,115.731756 12.7568,115.731756 C13.7394667,115.731756 14.5434667,116.535573 14.5434667,117.518015 C14.5434667,118.500458 13.7394667,119.304275 12.7568,119.304275 C11.7562667,119.304275 10.9701333,118.500458 10.9701333,117.518015 L10.9701333,117.518015 Z" id="Fill-5" sketch:type="MSShapeGroup"></path>
            <path d="M125.977867,119.304275 C125.495467,119.304275 125.0488,119.107786 124.709333,118.78626 C124.369867,118.44687 124.1912,117.982443 124.1912,117.518015 C124.1912,117.053588 124.369867,116.58916 124.709333,116.249771 C125.388267,115.588855 126.567467,115.588855 127.228533,116.249771 C127.568,116.58916 127.764533,117.053588 127.764533,117.518015 C127.764533,117.982443 127.568,118.44687 127.228533,118.78626 C126.906933,119.107786 126.4424,119.304275 125.977867,119.304275" id="Fill-6" sketch:type="MSShapeGroup"></path>
            <path d="M61.2415733,107.961527 L71.3987733,107.961527 L71.3987733,162.322763 L61.2415733,162.322763 L61.2415733,107.961527 Z" id="Fill-7" sketch:type="MSShapeGroup"></path>
            <path d="M76.77664,107.956168 L55.8637067,107.956168 C54.8774667,107.956168 54.07704,107.155924 54.07704,106.169908 L54.07704,93.6250076 C54.07704,92.6372061 54.8774667,91.8387481 55.8637067,91.8387481 L76.77664,91.8387481 C77.76288,91.8387481 78.5633067,92.6372061 78.5633067,93.6250076 L78.5633067,106.169908 C78.5633067,107.155924 77.76288,107.956168 76.77664,107.956168 L76.77664,107.956168 Z M57.6503733,104.383649 L74.9899733,104.383649 L74.9899733,95.4112672 L57.6503733,95.4112672 L57.6503733,104.383649 Z" id="Fill-8" sketch:type="MSShapeGroup"></path>
            <path d="M44.7309867,32.1169466 L31.5936267,31.8525802 L31.77944,29.9323511 C32.8425067,18.9343511 41.7043733,15.7315878 46.24072,15.5743969 L48.56696,15.4940153 L44.7309867,32.1169466 L44.7309867,32.1169466 Z M35.63328,28.3604427 L41.9009067,28.4872672 L43.9591467,19.566687 C41.2094667,20.3276336 36.9321867,22.4514962 35.63328,28.3604427 L35.63328,28.3604427 Z" id="Fill-9" sketch:type="MSShapeGroup"></path>
            <path d="M84.7237333,32.1169466 L80.8859733,15.4940153 L83.2122133,15.5743969 C87.7503467,15.7315878 96.6122133,18.9343511 97.67528,29.9323511 L97.8610933,31.8525802 L84.7237333,32.1169466 L84.7237333,32.1169466 Z M85.4902133,19.5488244 L87.5520267,28.4872672 L93.8232267,28.3604427 C92.5225333,22.4014809 88.2398933,20.2936947 85.4902133,19.5488244 L85.4902133,19.5488244 Z" id="Fill-10" sketch:type="MSShapeGroup"></path>
            <path d="M95.8403733,23.8858626 L91.8561067,21.7155573 C91.71496,21.6405344 77.21616,13.8345802 64.8810133,14.1829008 C52.4618933,14.5651603 37.6718667,21.6834046 37.5235733,21.754855 L33.7072533,23.6089924 L35.04904,19.5827634 C39.27808,6.89674809 48.9189333,0.464427481 63.7036,0.464427481 L64.6594667,0.473358779 C80.0444533,0.748442748 90.3302933,7.35581679 94.40568,19.5827634 L95.8403733,23.8858626 L95.8403733,23.8858626 Z M63.7036,4.03694656 C52.1224267,4.03694656 44.3522133,8.19714504 40.0785067,16.7265344 C45.5582133,14.4722748 55.6064267,10.8943969 64.77024,10.6121679 C73.84472,10.3352977 83.66424,13.9953435 89.1778933,16.4514504 C84.80592,8.42578626 76.5604533,4.25844275 64.5951467,4.04587786 L63.7036,4.03694656 L63.7036,4.03694656 Z" id="Fill-11" sketch:type="MSShapeGroup"></path>
        </g>
    </g>
</svg>