<?xml version="1.0" encoding="UTF-8" standalone="no"?>
<svg width="99px" height="91px" viewBox="0 0 99 91" version="1.1" xmlns="http://www.w3.org/2000/svg" xmlns:xlink="http://www.w3.org/1999/xlink" xmlns:sketch="http://www.bohemiancoding.com/sketch/ns">
    <!-- Generator: Sketch 3.0.4 (8054) - http://www.bohemiancoding.com/sketch -->
    <title>Slice 2</title>
    <desc>Created with Sketch.</desc>
    <defs></defs>
    <g id="Page-1" stroke="none" stroke-width="1" fill="none" fill-rule="evenodd" sketch:type="MSPage">
        <g id="Imported-Layers" sketch:type="MSLayerGroup" fill="#FFFFFF">
            <path d="M77.8422707,41.9008278 C77.1550178,41.9008278 76.5994987,41.3450119 76.5994987,40.6601673 C76.5994987,39.8574599 75.4138941,39.247055 73.7398802,38.4728828 C71.8247684,37.5858105 69.4411316,36.4828633 69.4411316,34.0337994 C69.4411316,31.5847356 71.8247684,30.4805477 73.7398802,29.5947161 C75.4138941,28.8205439 76.5994987,28.2088983 76.5994987,27.4074316 C76.5994987,26.6059649 75.4138941,25.9955599 73.7398802,25.2213878 C71.8247684,24.3355561 69.4411316,23.2326089 69.4411316,20.7847857 C69.4411316,18.3382032 71.8247684,17.2364966 73.7398802,16.3519057 C75.4151369,15.5777335 76.5994987,14.9685692 76.5994987,14.1683432 C76.5994987,13.3681171 75.4151369,12.7589528 73.7398802,11.9847806 C71.8247684,11.098949 69.4411316,9.99600183 69.4411316,7.54941928 C69.4411316,5.10159607 71.8247684,3.99864886 73.7411229,3.11405791 C75.4151369,2.33988574 76.5994987,1.73072143 76.5994987,0.930495391 C76.5994987,0.245650783 77.1550178,-0.31016513 77.8422707,-0.31016513 C78.5282809,-0.31016513 79.0850428,0.245650783 79.0850428,0.930495391 C79.0850428,3.37707794 76.701406,4.48002514 74.7850515,5.3646161 C73.1122803,6.13878826 71.9266757,6.74919324 71.9266757,7.54941928 C71.9266757,8.34964531 73.1110375,8.95880963 74.7850515,9.73298179 C76.7001632,10.6188134 79.0850428,11.7217606 79.0850428,14.1683432 C79.0850428,16.6161664 76.7001632,17.7178729 74.7850515,18.6037045 C73.1110375,19.376636 71.9266757,19.9858003 71.9266757,20.7847857 C71.9266757,21.5862524 73.1122803,22.1966574 74.7850515,22.9708296 C76.701406,23.8566612 79.0850428,24.9596084 79.0850428,27.4074316 C79.0850428,29.8552548 76.701406,30.9594427 74.7850515,31.8452743 C73.1122803,32.6206871 71.9266757,33.2310921 71.9266757,34.0337994 C71.9266757,34.8365068 73.1122803,35.4469118 74.7862943,36.2210839 C76.701406,37.1081562 79.0850428,38.2111034 79.0850428,40.6601673 C79.0850428,41.3450119 78.5282809,41.9008278 77.8422707,41.9008278" id="Fill-1" sketch:type="MSShapeGroup"></path>
            <path d="M89.9592983,41.9008278 C89.2720454,41.9008278 88.7165263,41.3450119 88.7165263,40.6601673 C88.7165263,40.171347 86.9120212,39.4939464 85.9414163,39.1279515 C83.887114,38.35502 81.5581592,37.4791137 81.5581592,35.27446 C81.5581592,33.0698062 83.887114,32.1938999 85.9414163,31.4209684 C86.9107785,31.0562142 88.7165263,30.3763322 88.7165263,29.8887526 C88.7165263,29.401173 86.9120212,28.7225317 85.9414163,28.3590182 C83.887114,27.5860867 81.5581592,26.7101804 81.5581592,24.5067673 C81.5581592,22.3045949 83.887114,21.4286885 85.9414163,20.6569977 C86.9120212,20.2922435 88.7165263,19.6148429 88.7165263,19.1297446 C88.7165263,18.6434057 86.9120212,17.966005 85.942659,17.6024915 C83.887114,16.8308006 81.5581592,15.956135 81.5581592,13.7527219 C81.5581592,11.5493088 83.887114,10.6746431 85.942659,9.90171163 C86.9120212,9.53819809 88.7165263,8.86079745 88.7165263,8.37445852 C88.7165263,7.68961392 89.2720454,7.133798 89.9592983,7.133798 C90.6453085,7.133798 91.2020704,7.68961392 91.2020704,8.37445852 C91.2020704,10.5778716 88.8731155,11.4525373 86.8175706,12.2254688 C85.8482084,12.5889823 84.0437033,13.266383 84.0437033,13.7527219 C84.0437033,14.2378202 85.8482084,14.9164615 86.8175706,15.279975 C88.8731155,16.0516658 91.2020704,16.9263315 91.2020704,19.1297446 C91.2020704,21.331917 88.8718728,22.2078233 86.8175706,22.9795142 C85.8482084,23.3430277 84.0437033,24.021669 84.0437033,24.5067673 C84.0437033,24.9931062 85.8482084,25.6717475 86.8175706,26.0365017 C88.8731155,26.8094332 91.2020704,27.6853395 91.2020704,29.8887526 C91.2020704,32.0934064 88.8731155,32.9693127 86.8175706,33.7422442 C85.8482084,34.1082391 84.0437033,34.7868804 84.0437033,35.27446 C84.0437033,35.7632802 85.8482084,36.4419215 86.8175706,36.8066757 C88.8731155,37.5796072 91.2020704,38.4555135 91.2020704,40.6601673 C91.2020704,41.3450119 90.6453085,41.9008278 89.9592983,41.9008278" id="Fill-2" sketch:type="MSShapeGroup"></path>
            <path d="M81.3294891,47.8026499 C73.1532918,47.8026499 66.7492873,44.2766927 66.7492873,39.7755763 C66.7492873,35.2732193 73.1532918,31.7472621 81.3294891,31.7472621 C89.5056865,31.7472621 95.9109337,35.2732193 95.9109337,39.7755763 C95.9109337,44.2766927 89.5056865,47.8026499 81.3294891,47.8026499 L81.3294891,47.8026499 Z M81.3294891,34.2285831 C74.2021914,34.2285831 69.2348315,37.1515793 69.2348315,39.7755763 C69.2348315,42.3983327 74.2021914,45.3213289 81.3294891,45.3213289 C88.4580297,45.3213289 93.4253896,42.3983327 93.4253896,39.7755763 C93.4253896,37.1515793 88.4580297,34.2285831 81.3294891,34.2285831 L81.3294891,34.2285831 Z" id="Fill-3" sketch:type="MSShapeGroup"></path>
            <path d="M81.3170614,78.479222 C70.7969959,78.479222 67.0711653,72.2895666 66.9183043,72.0253059 C66.8089404,71.8392069 66.7505301,71.6282946 66.7492873,71.4136603 C66.4758775,39.9691194 66.7281602,39.2731088 66.8238537,39.0113295 C67.0587376,38.3686673 67.7745743,38.0374109 68.4170874,38.2694145 C69.0098897,38.4852894 69.3392243,39.1056197 69.2062477,39.7048587 C69.0397162,41.2122612 69.1291958,59.0678475 69.2323459,71.0253336 C69.9829802,72.0699697 73.337222,75.9979009 81.3170614,75.9979009 C89.0881151,75.9979009 92.6461715,72.5451427 93.5359963,71.5141538 L93.5359963,39.4356354 C93.5359963,38.7507907 94.0915154,38.1949748 94.7787684,38.1949748 C95.4647786,38.1949748 96.0215404,38.7507907 96.0215404,39.4356354 L96.0215404,71.944663 C96.0215404,72.1977578 95.9444886,72.4434085 95.800327,72.6518395 C95.6350383,72.8900463 91.6395262,78.479222 81.3170614,78.479222" id="Fill-4" sketch:type="MSShapeGroup"></path>
            <path d="M33.4976781,68.1457605 C32.7172172,68.1457605 31.9603691,68.1122627 31.2308619,68.0440263 C26.7332698,67.9013504 19.3213772,66.9534857 18.0326226,63.1136414 C17.3528263,61.0851615 18.1146455,58.5368447 20.069526,56.2949712 C22.8657631,53.0891044 28.5713297,50.1698302 36.2007073,51.6015524 C42.8010697,52.8372503 45.7240696,57.0071103 45.6917576,60.5926192 C45.6606883,64.1843314 42.85948,66.9758176 38.5557604,67.7040853 C36.8009662,68.0006032 35.1008541,68.1457605 33.4976781,68.1457605 L33.4976781,68.1457605 Z M34.2582546,65.5267261 C34.4347282,65.5267261 34.604988,65.5639459 34.757849,65.6321823 C35.8216619,65.5800745 36.9500989,65.4597305 38.1406745,65.2587435 C41.2451191,64.7327034 43.1863291,62.9374676 43.2074562,60.571528 C43.2285833,58.0194893 40.9306978,55.0108875 35.7433672,54.040691 C29.1467331,52.8087151 24.2887371,55.2379284 21.944869,57.9251991 C20.6151029,59.4487302 20.0049018,61.1769703 20.3901612,62.325822 C20.6238023,63.0218325 21.4514885,63.597499 22.6097521,64.0615061 C22.0070076,63.1198447 21.7721237,62.0764492 21.944869,61.035535 C22.4593767,57.9127925 25.1847758,55.4575253 29.2324844,54.4674782 C32.5544141,53.6536049 36.998567,53.9339942 38.9024938,56.4686637 C40.264572,58.2825093 40.1328381,59.698103 39.7823764,60.5665654 C38.8043148,62.9883347 35.1741776,63.6409221 34.7640628,63.7079178 C30.1086387,64.3927624 28.12766,61.5665377 27.7287302,59.9735296 C27.5621987,59.3085356 27.9660997,58.6348569 28.6322255,58.4686084 C29.2933802,58.3060819 29.9644771,58.7018526 30.1359797,59.358162 C30.210546,59.6187007 30.9375677,61.7650434 34.3825318,61.2563726 C35.4277031,61.0814395 37.1539135,60.44374 37.478277,59.63607 C37.6783633,59.1373244 37.281919,58.4475172 36.9140585,57.9574563 C35.913627,56.6249869 32.7979974,56.1498139 29.8240439,56.876841 C26.7742813,57.6237186 24.7460773,59.3283862 24.3968583,61.4399904 C24.294951,62.0578393 24.5484765,62.6756882 25.1524637,63.2749273 C26.2771724,64.3927624 28.5576592,65.3232578 31.7080863,65.5862778 C32.6538359,65.6135724 33.4939498,65.5937218 34.1401913,65.5316888 C34.17996,65.5279668 34.2197287,65.5267261 34.2582546,65.5267261 L34.2582546,65.5267261 Z" id="Fill-5" sketch:type="MSShapeGroup"></path>
            <path d="M31.7963232,78.5958441 C28.5290754,78.5970847 24.9946317,77.5809838 22.1635969,75.7448062 C19.9614048,74.3155653 18.5595579,72.5811219 18.2165529,70.8615664 C17.4249071,66.8827681 17.5516698,62.4523694 17.5578837,62.2662703 C17.5790108,61.5814257 18.1444721,61.0529043 18.8391817,61.0653109 C19.5251918,61.0864021 20.0633121,61.6583466 20.042185,62.3431912 C20.042185,62.3866143 19.9191506,66.6830217 20.6548716,70.3789494 C20.8624146,71.4198636 21.9063431,72.6183417 23.5182185,73.6654592 C26.1479241,75.3701267 30.4976264,76.7075588 34.2905667,75.8527437 C39.9600928,74.576104 43.2596526,71.1109391 43.4845944,68.4993487 C43.7368771,65.5751119 43.3615599,61.4077332 43.3578316,61.3655507 C43.2944503,60.6844281 43.7977729,60.0802264 44.4812976,60.0169528 C45.1648222,59.9511977 45.7700522,60.4573872 45.8321908,61.1397505 C45.8495896,61.3184056 46.2336062,65.5664273 45.9601963,68.7127423 C45.6519888,72.288326 41.7335285,76.7199654 34.8386292,78.2732723 C33.874238,78.4903879 32.8489511,78.5958441 31.7963232,78.5958441" id="Fill-6" sketch:type="MSShapeGroup"></path>
            <path d="M36.2181061,73.296983 C34.6000169,73.296983 33.1559158,72.624545 31.8398202,72.010418 C30.9798219,71.6109253 30.1682918,71.2325239 29.3940448,71.0774413 C28.4719079,70.8938235 28.1090185,71.0650347 27.3869679,71.4049757 C26.5580389,71.7957837 25.4221453,72.3317491 23.3032189,72.3317491 C19.507793,72.3317491 18.0736341,68.7437589 17.8462068,66.8467889 C17.7641838,66.166907 18.2501077,65.5478174 18.9311468,65.4671744 C19.6047292,65.3828095 20.2286008,65.8679078 20.3131093,66.5477897 C20.3342364,66.7053536 20.7779061,69.850428 23.3032189,69.850428 C24.8641406,69.850428 25.6073183,69.5005618 26.3256405,69.1618615 C27.1831533,68.7574061 28.155001,68.3008431 29.8812114,68.644506 C30.9487526,68.8578996 31.9367564,69.3181847 32.8912053,69.7635818 C34.4782253,70.5030155 35.8502456,71.1394743 37.3179594,70.6233596 C38.6713382,70.1469459 39.9315091,68.9075261 41.0425473,67.8132635 C42.1722271,66.7028723 43.2385255,65.6545142 44.4440144,65.3257391 C45.1051691,65.1446027 45.7886938,65.5354108 45.9701385,66.1966828 C46.1503404,66.8579549 45.76011,67.5403182 45.0977125,67.7202139 C44.5198235,67.8777778 43.6386981,68.7437589 42.7873993,69.5812047 C41.491188,70.8566037 40.0209886,72.3032139 38.1456456,72.9632453 C37.4757915,73.2002115 36.8345211,73.296983 36.2181061,73.296983" id="Fill-7" sketch:type="MSShapeGroup"></path>
            <path d="M67.7671177,69.8305775 L65.927815,69.8305775 C61.2835758,69.8305775 57.5055488,66.0577288 57.5055488,61.4213805 L57.5055488,50.3596512 C57.5055488,45.7233029 61.2835758,41.9516949 65.927815,41.9516949 L67.7671177,41.9516949 C68.4531278,41.9516949 69.0098897,42.5075108 69.0098897,43.1923554 L69.0098897,46.6066532 C69.0098897,47.2914978 68.4531278,47.8473137 67.7671177,47.8473137 L66.5243456,47.8473137 C64.6838002,47.8473137 63.7517211,49.1934304 63.7517211,51.8472032 L63.7517211,59.9350692 C63.7517211,62.588842 64.6838002,63.9349587 66.5243456,63.9349587 L67.7671177,63.9349587 C68.4531278,63.9349587 69.0098897,64.4895339 69.0098897,65.1756192 L69.0098897,68.589917 C69.0098897,69.2747616 68.4531278,69.8305775 67.7671177,69.8305775 L67.7671177,69.8305775 Z M65.927815,44.4330159 C62.6543534,44.4330159 59.9898501,47.0917514 59.9898501,50.3596512 L59.9898501,61.4213805 C59.9898501,64.6892803 62.6543534,67.3492564 65.927815,67.3492564 L66.5243456,67.3492564 L66.5243456,66.4162797 C63.2309996,66.4162797 61.266177,63.9932697 61.266177,59.9350692 L61.266177,51.8472032 C61.266177,47.7890026 63.2309996,45.3659926 66.5243456,45.3659926 L66.5243456,44.4330159 L65.927815,44.4330159 L65.927815,44.4330159 Z" id="Fill-8" sketch:type="MSShapeGroup"></path>
            <path d="M92.8748416,41.9454916 C92.8748416,44.294062 87.6390429,46.1984759 81.1815993,46.1984759 C74.7241556,46.1984759 69.488357,44.294062 69.488357,41.9454916 C69.488357,39.5969212 74.7241556,37.6912667 81.1815993,37.6912667 C87.6390429,37.6912667 92.8748416,39.5969212 92.8748416,41.9454916" id="Fill-9" sketch:type="MSShapeGroup"></path>
            <path d="M31.3203415,86.3251591 C23.2945195,86.3251591 15.7049105,85.1626602 9.93844816,83.0498153 C9.91732104,83.043612 9.89619391,83.0374087 9.87506679,83.0287241 C3.49343226,80.6851164 -0.021127125,77.3924034 -0.021127125,73.7585087 C-0.021127125,68.5502158 7.26897378,64.1074105 19.0044703,62.1645361 C19.6817811,62.0503953 20.3218087,62.5094397 20.4336582,63.1855997 C20.5455077,63.8617597 20.0881676,64.4994592 19.4108568,64.6123593 C9.43263993,66.2649191 2.46441699,70.0253612 2.46441699,73.7585087 C2.46441699,76.2311451 5.45701212,78.7521673 10.6766548,80.6789131 C10.6977819,80.686357 10.718909,80.6925603 10.7400361,80.701245 C16.2442736,82.7272436 23.5530161,83.8438381 31.3203415,83.8438381 C39.0789674,83.8438381 46.3914382,82.7272436 51.9118317,80.7000043 C51.9416582,80.690079 51.9714848,80.6801537 52.0013113,80.6714691 C57.193613,78.7434827 60.1700521,76.2261825 60.1700521,73.7585087 C60.1700521,70.13578 53.7623193,66.5304205 44.2252865,64.7885331 C43.5504613,64.6644671 43.1030634,64.0180829 43.2260978,63.3444043 C43.350375,62.6707256 43.9928881,62.2265691 44.6726845,62.3469132 C55.9334421,64.405169 62.6555962,68.6718006 62.6555962,73.7585087 C62.6555962,77.3911627 59.1497362,80.6826351 52.7817722,83.0287241 C52.7507029,83.0398901 52.7196336,83.0498153 52.6873215,83.0597406 C46.9096742,85.1651415 39.3262791,86.3251591 31.3203415,86.3251591" id="Fill-10" sketch:type="MSShapeGroup"></path>
            <path d="M31.3178559,88.4032655 C23.7506168,88.4032655 16.1833778,87.3313348 10.8195736,85.1874734 C10.5585914,85.0832579 10.3398635,84.8946775 10.2006731,84.6515081 L8.95168715,82.4629829 C8.72550263,82.0672122 8.73420204,81.5796326 8.97529982,81.1937872 C9.2163976,80.8067011 9.65633891,80.5784196 10.1049796,80.6106768 L10.3870889,80.6268053 C11.0718563,80.6677471 11.5938205,81.2558202 11.5528091,81.9394242 C11.5515663,81.9592747 11.5503235,81.980366 11.547838,81.9989759 L12.1431258,83.0398901 C22.1673252,86.8524398 40.4696294,86.8536805 50.492586,83.0398901 L51.0891166,81.9977352 C51.0866311,81.9791253 51.0853883,81.9592747 51.0853883,81.9394242 C51.043134,81.2558202 51.5650983,80.6677471 52.2498657,80.6268053 L52.531975,80.6106768 C52.9806157,80.5759383 53.4217998,80.8067011 53.6628975,81.1937872 C53.9027526,81.5808733 53.911452,82.0684529 53.6852674,82.4642236 L52.4325532,84.6515081 C52.2933627,84.8946775 52.0758776,85.0844986 51.8148955,85.1874734 C46.4510913,87.3313348 38.885095,88.4032655 31.3178559,88.4032655" id="Fill-11" sketch:type="MSShapeGroup"></path>
            <path d="M31.4396476,83.2036572 C19.4729954,83.2036572 6.75446615,79.8724837 6.75446615,73.698957 C6.75446615,70.2040163 11.0432725,67.2276717 18.5197892,65.5341701 C19.1884006,65.3828095 19.8545264,65.8009121 20.0061446,66.4696281 C20.1590056,67.1371035 19.7389486,67.8020975 19.0690945,67.9534581 C12.2798307,69.4918772 9.24125304,71.9471443 9.24125304,73.698957 C9.24125304,77.0140019 18.7347888,80.7223362 31.4396476,80.7223362 C44.1420208,80.7223362 53.633071,77.0140019 53.633071,73.698957 C53.633071,71.6617924 50.0340031,69.4670639 44.4638988,68.1060594 C43.7977729,67.9435328 43.3889009,67.2723355 43.5517041,66.6061008 C43.71575,65.9398661 44.3856041,65.5316888 45.0542155,65.6966966 C52.0858198,67.4137708 56.1186151,70.3305637 56.1186151,73.698957 C56.1186151,79.8724837 43.4025714,83.2036572 31.4396476,83.2036572" id="Fill-12" sketch:type="MSShapeGroup"></path>
        </g>
    </g>
</svg>