<?xml version="1.0" encoding="UTF-8" standalone="no"?>
<svg width="151px" height="123px" viewBox="0 0 151 123" version="1.1" xmlns="http://www.w3.org/2000/svg" xmlns:xlink="http://www.w3.org/1999/xlink" xmlns:sketch="http://www.bohemiancoding.com/sketch/ns">
    <!-- Generator: Sketch 3.0.4 (8054) - http://www.bohemiancoding.com/sketch -->
    <title>Slice 2</title>
    <desc>Created with Sketch.</desc>
    <defs>
        <path id="path-1" d="M22.7402698,7.95783331 L22.7402698,4.03306045 C16.8616591,3.19723043 0.0950811743,0.768711674 -0.0828802544,0.234827387 L7.19935876,8.57119964 L22.7402698,7.95783331"></path>
        <path id="path-3" d="M0.189933916,-0.298354121 L0.189933916,3.64524227 L10.0613175,3.25563999 L2.30251707,-1.11022302e-16 C2.30251707,-1.11022302e-16 1.50261563,-0.111598497 0.189933917,-0.298354121"></path>
    </defs>
    <g id="Page-1" stroke="none" stroke-width="1" fill="none" fill-rule="evenodd" sketch:type="MSPage">
        <g id="Imported-Layers" sketch:type="MSLayerGroup">
            <path d="M148.692356,115.16902 L148.692356,115.151753 C148.683723,115.125853 148.67509,115.09132 148.666456,115.074053 C148.64919,115.030886 148.640556,114.996353 148.62329,114.953186 C148.606023,114.918653 148.580123,114.884119 148.562856,114.849586 C148.528323,114.806419 148.502422,114.763252 148.467889,114.728719 C148.459256,114.720085 148.459256,114.720085 148.450622,114.711452 L148.424722,114.685552 C148.398822,114.659652 148.372922,114.633752 148.338389,114.616485 L145.46348,112.622179 L142.484971,110.550173 L144.867778,113.261048 L144.885045,113.278314 L145.929681,114.461085 L145.092245,114.461085 L146.335449,115.324421 L146.982951,115.773355 L146.982951,119.917368 L35.0946077,119.313033 L1.44177109,80.3852134 L1.44177109,75.4728317 L1.66623845,75.5073651 L2.9871425,75.7059324 L2.49504099,75.144764 L10.9298335,75.144764 L7.64052345,74.6526625 L5.15411582,74.281428 L1.86480572,73.7893265 L0.707935506,73.6166593 C0.664768707,73.6080259 0.630235268,73.6080259 0.587068469,73.6080259 C0.379867833,73.6080259 0.181300556,73.6770928 0.0172667197,73.8152266 C-0.0777002385,73.9015602 -0.155400477,73.9965271 -0.207200636,74.1087608 C-0.215833996,74.1173942 -0.207200636,74.1173942 -0.207200636,74.1260275 C-0.241734075,74.186461 -0.259000795,74.2555279 -0.267634155,74.3245948 C-0.276267515,74.3332282 -0.276267515,74.3332282 -0.267634155,74.3418615 L-0.267634155,74.3504949 C-0.276267515,74.3850283 -0.284900874,74.4281951 -0.284900874,74.4713619 L-0.284900874,80.7046477 C-0.284900874,80.9118484 -0.215833996,81.1104156 -0.0777002385,81.2744495 L34.0413378,120.737537 C34.2053717,120.927471 34.4471057,121.031071 34.6888398,121.039705 L147.837654,121.652673 L147.846287,121.652673 C148.070754,121.652673 148.295222,121.557706 148.450622,121.402306 C148.614656,121.238272 148.709623,121.013805 148.709623,120.789337 L148.709623,115.324421 C148.709623,115.27262 148.70099,115.22082 148.692356,115.16902 L148.692356,115.16902 Z M126.616855,101.640545 L126.625489,101.640545 L129.673065,103.755718 L132.729274,105.879525 L130.268767,103.125483 L130.260133,103.11685 L127.799626,100.354175 L127.782359,100.336908 L124.760683,98.2476349 L124.75205,98.2390015 L121.704474,96.1238284 L126.616855,101.640545 L126.616855,101.640545 Z M72.9000904,84.4083591 L61.2277879,84.4083591 L72.7878568,86.1350311 L84.4515259,86.1350311 L72.9000904,84.4083591 L72.9000904,84.4083591 Z M34.956474,78.7362417 L23.2755381,78.7362417 L29.0512558,79.5995777 L34.8356069,80.4629136 L46.5079094,80.4629136 L34.956474,78.7362417 L34.956474,78.7362417 Z" id="Fill-1" fill="#231F1F" sketch:type="MSShapeGroup"></path>
            <path d="M111.663876,-0.405767912 L0.587068469,-0.405767912 C0.112233678,-0.405767912 -0.276267515,-0.0259000795 -0.276267515,0.457568071 L-0.276267515,73.7893265 C-0.276267515,73.8756601 -0.267634155,73.9533603 -0.233100715,74.0310606 C-0.233100715,74.0569606 -0.224467356,74.0828607 -0.207200636,74.1087608 C-0.215833996,74.1173942 -0.207200636,74.1173942 -0.207200636,74.1260275 C-0.0777002385,74.4281951 0.224467356,74.6526625 0.578435109,74.6526625 L111.663876,74.6526625 C111.767476,74.6526625 111.862443,74.6353958 111.948777,74.6008623 C112.242311,74.497262 112.458145,74.2468946 112.509945,73.9360936 C112.518579,73.8929268 112.527212,73.8411267 112.527212,73.7893265 L112.527212,0.457568071 C112.527212,-0.0259000795 112.138711,-0.405767912 111.663876,-0.405767912 L111.663876,-0.405767912 Z M1.45040445,1.32090405 L110.80054,1.32090405 L110.80054,72.9259905 L1.45040445,72.9259905 L1.45040445,1.32090405 Z" id="Fill-2" fill="#231F1F" sketch:type="MSShapeGroup"></path>
            <path d="M148.692356,115.16902 L148.692356,115.151753 C148.683723,115.125853 148.67509,115.09132 148.666456,115.074053 C148.64919,115.030886 148.640556,114.996353 148.62329,114.953186 C148.606023,114.918653 148.580123,114.884119 148.562856,114.849586 C148.528323,114.806419 148.502422,114.763252 148.467889,114.728719 C148.459256,114.720085 148.459256,114.720085 148.450622,114.711452 L148.424722,114.685552 C148.424722,114.668285 148.407456,114.659652 148.398822,114.651019 L112.509945,73.9360936 L112.311378,73.7116263 C112.147344,73.5216923 111.914244,73.418092 111.663876,73.418092 L0.587068469,73.418092 C0.250367435,73.418092 -0.0604335188,73.6166593 -0.198567276,73.9274603 C-0.215833996,73.9619937 -0.224467356,73.9965271 -0.233100715,74.0310606 C-0.267634155,74.1260275 -0.276267515,74.2296278 -0.267634155,74.3245948 C-0.276267515,74.3332282 -0.276267515,74.3332282 -0.267634155,74.3418615 L-0.267634155,74.3504949 C-0.259000795,74.5317954 -0.181300556,74.713096 -0.0604335188,74.8512298 L0.578435109,75.576432 L1.44177109,76.5520016 L36.1219775,115.894222 C36.2860114,116.084156 36.5191121,116.187757 36.7694795,116.187757 L147.846287,116.187757 L147.863554,116.187757 C148.277955,116.187757 148.631923,115.894222 148.709623,115.497088 C148.718256,115.445288 148.72689,115.384854 148.72689,115.324421 C148.72689,115.27262 148.70099,115.22082 148.692356,115.16902 L148.692356,115.16902 Z M145.929681,114.461085 L37.1579807,114.461085 L2.9871425,75.7059324 L2.49504099,75.144764 L111.275375,75.144764 L142.476337,110.541539 L142.484971,110.550173 L144.867778,113.261048 L144.885045,113.278314 L145.929681,114.461085 L145.929681,114.461085 Z" id="Fill-3" fill="#231F1F" sketch:type="MSShapeGroup"></path>
            <path d="M134.818547,108.219166 L130.268767,103.125483 L130.260133,103.11685 L127.799626,100.354175 L127.782359,100.336908 L108.754434,79.0297759 C108.5904,78.839842 108.357299,78.7362417 108.115565,78.7362417 L14.1500768,78.7362417 C13.8047424,78.7362417 13.5025748,78.934809 13.3558077,79.2456099 C13.2176739,79.5564109 13.2781074,79.919012 13.5025748,80.1780128 L39.6530217,109.471003 C39.8170556,109.660937 40.0501563,109.764537 40.3005237,109.764537 L134.266012,109.764537 L134.283279,109.764537 C134.758114,109.764537 135.146615,109.376036 135.146615,108.901201 C135.146615,108.624933 135.017114,108.383199 134.818547,108.219166 L134.818547,108.219166 Z M40.6803915,108.037865 L21.1344649,86.1350311 L19.5977268,84.4083591 L16.075316,80.4629136 L107.727064,80.4629136 L111.249475,84.4083591 L112.699879,86.0314307 L121.687207,96.115195 L121.704474,96.1238284 L126.616855,101.640545 L126.625489,101.640545 L132.33214,108.037865 L40.6803915,108.037865 L40.6803915,108.037865 Z" id="Fill-4" fill="#231F1F" sketch:type="MSShapeGroup"></path>
            <path d="M98.8606034,103.729818 L91.4272806,95.2777591 C91.2718802,95.0964586 91.0387794,94.9842249 90.788412,94.9842249 L62.4191916,94.7856576 C62.0479571,94.8029243 61.7630562,94.9842249 61.6249225,95.2950258 C61.4781554,95.6058268 61.5385889,95.9684279 61.7630562,96.2187953 L69.5762469,104.973022 C69.7402807,105.162956 69.9733814,105.266556 70.2237489,105.266556 L98.2994351,105.266556 L98.3167018,105.266556 C98.7915366,105.266556 99.1800378,104.878055 99.1800378,104.40322 C99.1800378,104.126953 99.0591707,103.885219 98.8606034,103.729818 L98.8606034,103.729818 Z M70.6122501,103.539884 L64.3530642,96.5209629 L64.5084647,96.5209629 L64.517098,96.5209629 L90.3912775,96.7108968 L96.3914625,103.539884 L70.6122501,103.539884 L70.6122501,103.539884 Z" id="Fill-5" fill="#231F1F" sketch:type="MSShapeGroup"></path>
            <path d="M105.611891,6.00881844 L6.57862019,6.00881844 C6.1037854,6.00881844 5.71528421,6.39731964 5.71528421,6.87215443 L5.71528421,66.8308385 C5.71528421,67.3056733 6.1037854,67.6941745 6.57862019,67.6941745 L105.611891,67.6941745 C106.086726,67.6941745 106.475227,67.3056733 106.475227,66.8308385 L106.475227,6.87215443 C106.475227,6.39731964 106.086726,6.00881844 105.611891,6.00881844 L105.611891,6.00881844 Z M7.44195618,7.73549041 L104.748555,7.73549041 L104.748555,65.9675025 L7.44195618,65.9675025 L7.44195618,7.73549041 Z" id="Fill-6" fill="#231F1F" sketch:type="MSShapeGroup"></path>
            <g id="Group-56" transform="translate(63.023527, 95.830294)">
                <mask id="mask-2" sketch:name="Clip 8" fill="white">
                    <use xlink:href="#path-1"></use>
                </mask>
                <g id="Clip-8"></g>
                <path d="M21.2492886,8.23795195 C22.0323343,8.54961624 22.1273013,7.65779017 21.8242703,7.26583564 C21.5212394,6.87560777 20.417896,7.90729427 21.2492886,8.23795195" id="Fill-7" fill="#231F1F" sketch:type="MSShapeGroup" mask="url(#mask-2)"></path>
                <path d="M21.4193657,5.95615495 C22.047011,5.91126148 21.9701741,4.84849488 21.5514562,4.87871164 C21.1327382,4.90806507 20.7217903,6.00622844 21.4193657,5.95615495" id="Fill-9" fill="#231F1F" sketch:type="MSShapeGroup" mask="url(#mask-2)"></path>
                <path d="M21.391739,3.5629876 C21.9649941,3.72097809 21.941684,2.68670158 21.620523,2.54684115 C21.299362,2.40698072 20.7243803,3.37909704 21.391739,3.5629876" id="Fill-10" fill="#231F1F" sketch:type="MSShapeGroup" mask="url(#mask-2)"></path>
                <path d="M21.3459822,1.18622364 C21.7595201,1.31054402 22.0780911,0.315117634 21.7293034,0.209790644 C21.3805156,0.10532699 20.4748762,0.923769502 21.3459822,1.18622364" id="Fill-11" fill="#231F1F" sketch:type="MSShapeGroup" mask="url(#mask-2)"></path>
                <path d="M19.3369994,7.33317584 C18.9726716,7.40569606 18.8474879,7.85376744 19.0227451,8.05578806 C19.1988656,8.25867202 19.9206145,8.14816501 19.9283845,7.84254407 C19.9352912,7.5360598 19.662477,7.26842564 19.3369994,7.33317584" id="Fill-12" fill="#231F1F" sketch:type="MSShapeGroup" mask="url(#mask-2)"></path>
                <path d="M19.5113932,5.82579122 C19.875721,5.75327099 20.0009047,5.30519962 19.8256475,5.103179 C19.6503903,4.90029504 18.9277781,5.01080205 18.9208714,5.31555965 C18.9131014,5.62290726 19.1859156,5.88967808 19.5113932,5.82579122" id="Fill-13" fill="#231F1F" sketch:type="MSShapeGroup" mask="url(#mask-2)"></path>
                <path d="M19.1980023,3.49996408 C19.9801847,3.81162837 20.0198981,3.02685596 19.7168672,2.63490142 C19.4138363,2.24381022 18.364883,3.16844306 19.1980023,3.49996408" id="Fill-14" fill="#231F1F" sketch:type="MSShapeGroup" mask="url(#mask-2)"></path>
                <path d="M19.4146996,1.18622364 C20.0682449,1.11370342 20.0276681,0.246914091 19.425923,0.207200636 C18.9882116,0.178710549 18.688634,1.26737722 19.4146996,1.18622364" id="Fill-15" fill="#231F1F" sketch:type="MSShapeGroup" mask="url(#mask-2)"></path>
                <path d="M15.2516935,8.13089829 C15.864662,8.37435904 15.9389089,7.67592023 15.7014915,7.36857262 C15.4649375,7.06208834 14.5990115,7.87103416 15.2516935,8.13089829" id="Fill-16" fill="#231F1F" sketch:type="MSShapeGroup" mask="url(#mask-2)"></path>
                <path d="M15.3915539,5.94234157 C16.0943094,5.90435479 15.8905621,4.86748827 15.4217707,4.89252502 C14.9538426,4.91756176 14.6110982,5.98464504 15.3915539,5.94234157" id="Fill-17" fill="#231F1F" sketch:type="MSShapeGroup" mask="url(#mask-2)"></path>
                <path d="M15.3406171,3.5629876 C15.9138722,3.72097809 15.8905621,2.68670158 15.5694011,2.54684115 C15.2482401,2.40698072 14.6732584,3.37909704 15.3406171,3.5629876" id="Fill-18" fill="#231F1F" sketch:type="MSShapeGroup" mask="url(#mask-2)"></path>
                <path d="M15.3104003,1.17500027 C15.7636517,1.29932065 16.191003,0.504188214 15.6056612,0.231374044 C15.2465135,0.0638868628 14.3572774,0.912546134 15.3104003,1.17500027" id="Fill-19" fill="#231F1F" sketch:type="MSShapeGroup" mask="url(#mask-2)"></path>
                <path d="M17.3513266,8.24744865 C17.9245817,8.40543913 17.9012716,7.37202596 17.5801106,7.23216553 C17.2589496,7.0923051 16.6839679,8.06355808 17.3513266,8.24744865" id="Fill-20" fill="#231F1F" sketch:type="MSShapeGroup" mask="url(#mask-2)"></path>
                <path d="M17.3211098,5.84910129 C17.7743612,5.97342167 18.0247287,5.08936562 17.6431342,4.98490197 C17.2606763,4.87957498 16.3679869,5.58664715 17.3211098,5.84910129" id="Fill-21" fill="#231F1F" sketch:type="MSShapeGroup" mask="url(#mask-2)"></path>
                <path d="M17.3038431,3.54226754 C17.7916279,3.62514779 18.0212753,2.79893526 17.6163707,2.60641133 C17.0655624,2.34395719 16.3230934,3.37478036 17.3038431,3.54226754" id="Fill-22" fill="#231F1F" sketch:type="MSShapeGroup" mask="url(#mask-2)"></path>
                <path d="M17.5032737,1.14219351 C17.8736449,1.21212372 17.9383951,0.491238175 17.7389644,0.283174203 C17.5403972,0.0742468946 16.3317268,0.922906166 17.5032737,1.14219351" id="Fill-23" fill="#231F1F" sketch:type="MSShapeGroup" mask="url(#mask-2)"></path>
                <path d="M13.361851,5.82579122 C13.7261788,5.75327099 13.8513625,5.30519962 13.675242,5.103179 C13.5008481,4.90029504 12.7773726,5.01080205 12.7704659,5.31555965 C12.7635592,5.62290726 13.0363733,5.88967808 13.361851,5.82579122" id="Fill-24" fill="#231F1F" sketch:type="MSShapeGroup" mask="url(#mask-2)"></path>
                <path d="M13.0475967,3.55349091 C13.8297791,3.8651552 13.9247461,2.97246579 13.6225785,2.58137459 C13.3195476,2.19028339 12.2153408,3.22196989 13.0475967,3.55349091" id="Fill-25" fill="#231F1F" sketch:type="MSShapeGroup" mask="url(#mask-2)"></path>
                <path d="M13.3376776,1.28291727 C14.001583,1.2380238 13.8833059,0.0837435904 13.4404146,0.11396035 C12.9975232,0.144177109 12.5995253,1.33385409 13.3376776,1.28291727" id="Fill-26" fill="#231F1F" sketch:type="MSShapeGroup" mask="url(#mask-2)"></path>
                <path d="M13.1865938,7.33317584 C12.822266,7.40569606 12.6970823,7.85376744 12.8723395,8.05578806 C13.0484601,8.25867202 13.7710723,8.14816501 13.777979,7.84254407 C13.7848856,7.5360598 13.5120715,7.26842564 13.1865938,7.33317584" id="Fill-27" fill="#231F1F" sketch:type="MSShapeGroup" mask="url(#mask-2)"></path>
                <path d="M11.1707043,8.23795195 C11.9528867,8.54961624 12.0478536,7.65779017 11.7456861,7.26583564 C11.4426551,6.87560777 10.3375851,7.90729427 11.1707043,8.23795195" id="Fill-28" fill="#231F1F" sketch:type="MSShapeGroup" mask="url(#mask-2)"></path>
                <path d="M11.3399181,5.95615495 C11.9675634,5.91126148 11.8907265,4.84849488 11.4720085,4.87871164 C11.0541539,4.90806507 10.6423427,6.00622844 11.3399181,5.95615495" id="Fill-29" fill="#231F1F" sketch:type="MSShapeGroup" mask="url(#mask-2)"></path>
                <path d="M11.3131547,3.5629876 C11.8855465,3.72097809 11.8613731,2.68670158 11.5410754,2.54684115 C11.2199144,2.40698072 10.6449327,3.37909704 11.3131547,3.5629876" id="Fill-30" fill="#231F1F" sketch:type="MSShapeGroup" mask="url(#mask-2)"></path>
                <path d="M11.2673979,1.18622364 C11.6800725,1.31054402 11.9986435,0.315117634 11.6498558,0.209790644 C11.3019314,0.10532699 10.3954286,0.923769502 11.2673979,1.18622364" id="Fill-31" fill="#231F1F" sketch:type="MSShapeGroup" mask="url(#mask-2)"></path>
                <path d="M9.25755175,7.33317584 C8.89322396,7.40569606 8.76804025,7.85376744 8.94329745,8.05578806 C9.11855466,8.25867202 9.84116687,8.14816501 9.8489369,7.84254407 C9.85584359,7.5360598 9.58302941,7.26842564 9.25755175,7.33317584" id="Fill-32" fill="#231F1F" sketch:type="MSShapeGroup" mask="url(#mask-2)"></path>
                <path d="M9.43280895,5.82579122 C9.79713674,5.75327099 9.92145712,5.30519962 9.74619992,5.103179 C9.57094271,4.90029504 8.84833049,5.01080205 8.84142381,5.31555965 C8.83365378,5.62290726 9.10733129,5.88967808 9.43280895,5.82579122" id="Fill-33" fill="#231F1F" sketch:type="MSShapeGroup" mask="url(#mask-2)"></path>
                <path d="M9.11769132,3.49996408 C9.90073706,3.81162837 9.94045051,3.02685596 9.63741958,2.63490142 C9.33438865,2.24381022 8.28543543,3.16844306 9.11769132,3.49996408" id="Fill-34" fill="#231F1F" sketch:type="MSShapeGroup" mask="url(#mask-2)"></path>
                <path d="M9.33525199,1.18622364 C9.98879733,1.11370342 9.94822054,0.246914091 9.34647536,0.207200636 C8.90876401,0.178710549 8.60918643,1.26737722 9.33525199,1.18622364" id="Fill-35" fill="#231F1F" sketch:type="MSShapeGroup" mask="url(#mask-2)"></path>
                <path d="M5.17138254,8.13089829 C5.78521442,8.37435904 5.85946132,7.67592023 5.62204392,7.36857262 C5.38462653,7.06208834 4.51956387,7.87103416 5.17138254,8.13089829" id="Fill-36" fill="#231F1F" sketch:type="MSShapeGroup" mask="url(#mask-2)"></path>
                <path d="M5.31296964,5.94234157 C6.0148618,5.90435479 5.8111145,4.86748827 5.34232306,4.89252502 C4.87439496,4.91756176 4.53165058,5.98464504 5.31296964,5.94234157" id="Fill-37" fill="#231F1F" sketch:type="MSShapeGroup" mask="url(#mask-2)"></path>
                <path d="M5.26203282,3.5629876 C5.83442458,3.72097809 5.81025117,2.68670158 5.48995352,2.54684115 C5.16879253,2.40698072 4.59381077,3.37909704 5.26203282,3.5629876" id="Fill-38" fill="#231F1F" sketch:type="MSShapeGroup" mask="url(#mask-2)"></path>
                <path d="M5.23181606,1.17500027 C5.68420411,1.29932065 6.11155543,0.504188214 5.52621363,0.231374044 C5.1679292,0.0638868628 4.27696646,0.912546134 5.23181606,1.17500027" id="Fill-39" fill="#231F1F" sketch:type="MSShapeGroup" mask="url(#mask-2)"></path>
                <path d="M7.27274232,8.24744865 C7.84513408,8.40543913 7.82096067,7.37202596 7.50066302,7.23216553 C7.17950204,7.0923051 6.60452027,8.06355808 7.27274232,8.24744865" id="Fill-40" fill="#231F1F" sketch:type="MSShapeGroup" mask="url(#mask-2)"></path>
                <path d="M7.24252556,5.84910129 C7.69491362,5.97342167 7.94528105,5.08936562 7.56282321,4.98490197 C7.18122871,4.87957498 6.28767597,5.58664715 7.24252556,5.84910129" id="Fill-41" fill="#231F1F" sketch:type="MSShapeGroup" mask="url(#mask-2)"></path>
                <path d="M7.22353217,3.54226754 C7.711317,3.62514779 7.94096437,2.79893526 7.53692313,2.60641133 C6.98525144,2.34395719 6.24364583,3.37478036 7.22353217,3.54226754" id="Fill-42" fill="#231F1F" sketch:type="MSShapeGroup" mask="url(#mask-2)"></path>
                <path d="M7.42382612,1.14219351 C7.79419726,1.21212372 7.85894746,0.491238175 7.65951684,0.283174203 C7.46008623,0.0742468946 6.25227919,0.922906166 7.42382612,1.14219351" id="Fill-43" fill="#231F1F" sketch:type="MSShapeGroup" mask="url(#mask-2)"></path>
                <path d="M3.28240341,5.82579122 C3.64673119,5.75327099 3.77191491,5.30519962 3.59665771,5.103179 C3.4214005,4.90029504 2.69878828,5.01080205 2.69101826,5.31555965 C2.68324824,5.62290726 2.95692574,5.88967808 3.28240341,5.82579122" id="Fill-44" fill="#231F1F" sketch:type="MSShapeGroup" mask="url(#mask-2)"></path>
                <path d="M2.96814911,3.55349091 C3.75033151,3.8651552 3.84616181,2.97246579 3.54226754,2.58137459 C3.24009995,2.19028339 2.13502989,3.22196989 2.96814911,3.55349091" id="Fill-45" fill="#231F1F" sketch:type="MSShapeGroup" mask="url(#mask-2)"></path>
                <path d="M3.25823,1.28291727 C3.92213537,1.2380238 3.80385834,0.0837435904 3.36010365,0.11396035 C2.91721229,0.144177109 2.52007774,1.33385409 3.25823,1.28291727" id="Fill-46" fill="#231F1F" sketch:type="MSShapeGroup" mask="url(#mask-2)"></path>
                <path d="M3.1071462,7.33317584 C2.74281842,7.40569606 2.61849804,7.85376744 2.79375524,8.05578806 C2.96901245,8.25867202 3.69162466,8.14816501 3.69853135,7.84254407 C3.70543804,7.5360598 3.43262387,7.26842564 3.1071462,7.33317584" id="Fill-47" fill="#231F1F" sketch:type="MSShapeGroup" mask="url(#mask-2)"></path>
                <path d="M1.14823686,8.23795195 C1.93128259,8.54961624 2.02624955,7.65779017 1.72321862,7.26583564 C1.42105103,6.87560777 0.31598097,7.90729427 1.14823686,8.23795195" id="Fill-48" fill="#231F1F" sketch:type="MSShapeGroup" mask="url(#mask-2)"></path>
                <path d="M1.31831405,5.95615495 C1.94595931,5.91126148 1.8691224,4.84849488 1.45040445,4.87871164 C1.03254984,4.90806507 0.620738572,6.00622844 1.31831405,5.95615495" id="Fill-49" fill="#231F1F" sketch:type="MSShapeGroup" mask="url(#mask-2)"></path>
                <path d="M1.29155063,3.5629876 C1.86394239,3.72097809 1.83976898,2.68670158 1.51947133,2.54684115 C1.19831034,2.40698072 0.622465244,3.37909704 1.29155063,3.5629876" id="Fill-50" fill="#231F1F" sketch:type="MSShapeGroup" mask="url(#mask-2)"></path>
                <path d="M1.24579382,1.18622364 C1.65846842,1.31054402 1.9770394,0.315117634 1.62825166,0.209790644 C1.27946393,0.10532699 0.373824481,0.923769502 1.24579382,1.18622364" id="Fill-51" fill="#231F1F" sketch:type="MSShapeGroup" mask="url(#mask-2)"></path>
                <path d="M-0.764915681,7.33317584 C-1.12838013,7.40569606 -1.25356385,7.85376744 -1.07830664,8.05578806 C-0.903049439,8.25867202 -0.180437221,8.14816501 -0.172667197,7.84254407 C-0.165760509,7.5360598 -0.43857468,7.26842564 -0.764915681,7.33317584" id="Fill-52" fill="#231F1F" sketch:type="MSShapeGroup" mask="url(#mask-2)"></path>
                <path d="M-0.588795141,5.82579122 C-0.225330692,5.75327099 -0.100146974,5.30519962 -0.275404179,5.103179 C-0.450661383,4.90029504 -1.1732736,5.01080205 -1.18104363,5.31555965 C-1.18795031,5.62290726 -0.914272806,5.88967808 -0.588795141,5.82579122" id="Fill-53" fill="#231F1F" sketch:type="MSShapeGroup" mask="url(#mask-2)"></path>
                <path d="M-0.903912775,3.49996408 C-0.120867038,3.81162837 -0.0811535824,3.02685596 -0.384184513,2.63490142 C-0.687215443,2.24381022 -1.73616866,3.16844306 -0.903912775,3.49996408" id="Fill-54" fill="#231F1F" sketch:type="MSShapeGroup" mask="url(#mask-2)"></path>
                <path d="M-0.686352107,1.18622364 C-0.0328067674,1.11370342 -0.0733835586,0.246914091 -0.675992075,0.207200636 C-1.11284008,0.178710549 -1.41241767,1.26737722 -0.686352107,1.18622364" id="Fill-55" fill="#231F1F" sketch:type="MSShapeGroup" mask="url(#mask-2)"></path>
            </g>
            <g id="Group-68" transform="translate(85.470262, 100.146974)">
                <mask id="mask-4" sketch:name="Clip 58" fill="white">
                    <use xlink:href="#path-3"></use>
                </mask>
                <g id="Clip-58"></g>
                <path d="M9.3067619,3.92127204 C10.0889443,4.23293633 10.1839113,3.34111026 9.88088033,2.94915572 C9.57871273,2.55892785 8.47450601,3.59061435 9.3067619,3.92127204" id="Fill-57" fill="#231F1F" sketch:type="MSShapeGroup" mask="url(#mask-4)"></path>
                <path d="M9.47597575,1.63947503 C10.103621,1.59458156 10.0267841,0.531814966 9.60806616,0.562031725 C9.18934821,0.591385149 8.77840028,1.68954852 9.47597575,1.63947503" id="Fill-59" fill="#231F1F" sketch:type="MSShapeGroup" mask="url(#mask-4)"></path>
                <path d="M7.39360936,3.01649593 C7.02928158,3.08901615 6.90409786,3.53708752 7.07935506,3.73910814 C7.2554756,3.9419921 7.97722449,3.83148509 7.98499451,3.52586416 C7.9919012,3.21937988 7.71908703,2.95174573 7.39360936,3.01649593" id="Fill-60" fill="#231F1F" sketch:type="MSShapeGroup" mask="url(#mask-4)"></path>
                <path d="M7.56800323,1.5091113 C7.93233101,1.43659108 8.05751473,0.988519701 7.88225753,0.786499081 C7.70700032,0.583615125 6.9843881,0.694122131 6.97748142,0.998879733 C6.96971139,1.30622734 7.24252556,1.57299816 7.56800323,1.5091113" id="Fill-61" fill="#231F1F" sketch:type="MSShapeGroup" mask="url(#mask-4)"></path>
                <path d="M3.30830349,3.81421837 C3.92127204,4.05767912 3.99551893,3.35924031 3.75810154,3.0518927 C3.52154748,2.74540843 2.65562148,3.55435424 3.30830349,3.81421837" id="Fill-62" fill="#231F1F" sketch:type="MSShapeGroup" mask="url(#mask-4)"></path>
                <path d="M3.44816392,1.62566166 C4.15178274,1.58767487 3.94717212,0.550808357 3.47838068,0.575845101 C3.01045257,0.600881844 2.66770819,1.66796512 3.44816392,1.62566166" id="Fill-63" fill="#231F1F" sketch:type="MSShapeGroup" mask="url(#mask-4)"></path>
                <path d="M5.40879994,3.93076873 C5.98119169,4.08875922 5.95788162,3.05534604 5.63672063,2.91548562 C5.31555965,2.77562519 4.74057788,3.74687817 5.40879994,3.93076873" id="Fill-64" fill="#231F1F" sketch:type="MSShapeGroup" mask="url(#mask-4)"></path>
                <path d="M5.37771984,1.53242137 C5.83097123,1.65674175 6.08133867,0.772685705 5.69974416,0.668222051 C5.31728632,0.562895061 4.42459691,1.26996723 5.37771984,1.53242137" id="Fill-65" fill="#231F1F" sketch:type="MSShapeGroup" mask="url(#mask-4)"></path>
                <path d="M1.41846102,1.5091113 C1.78278881,1.43659108 1.90797252,0.988519701 1.73185198,0.786499081 C1.55659478,0.583615125 0.83398256,0.694122131 0.827075872,0.998879733 C0.820169184,1.30622734 1.09298335,1.57299816 1.41846102,1.5091113" id="Fill-66" fill="#231F1F" sketch:type="MSShapeGroup" mask="url(#mask-4)"></path>
                <path d="M1.24320382,3.01649593 C0.878876031,3.08901615 0.753692313,3.53708752 0.928949518,3.73910814 C1.10507006,3.9419921 1.82768228,3.83148509 1.83458896,3.52586416 C1.84235899,3.21937988 1.56868148,2.95174573 1.24320382,3.01649593" id="Fill-67" fill="#231F1F" sketch:type="MSShapeGroup" mask="url(#mask-4)"></path>
            </g>
            <path d="M57.9134411,3.88587526 C57.9134411,4.64215758 57.3047892,5.25339946 56.5554136,5.25339946 C55.8051746,5.25339946 55.1973861,4.64215758 55.1973861,3.88587526 C55.1973861,3.13045628 55.8051746,2.51835106 56.5554136,2.51835106 C57.3047892,2.51835106 57.9134411,3.13045628 57.9134411,3.88587526" id="Fill-69" fill="#000000" sketch:type="MSShapeGroup"></path>
            <path d="M113.157447,85.245795 L113.157447,85.2716951 C113.157447,85.5997627 112.976147,85.8846636 112.699879,86.0314307 C112.579012,86.1004976 112.440878,86.1350311 112.294111,86.1350311 L19.4854931,86.1350311 C19.0106584,86.1350311 18.6221572,85.7465299 18.6221572,85.2716951 C18.6221572,85.0903945 18.6825907,84.9177273 18.7775576,84.7795936 C18.9329581,84.5551262 19.1919589,84.4083591 19.4854931,84.4083591 L112.294111,84.4083591 C112.337278,84.4083591 112.380445,84.4083591 112.414978,84.4169924 C112.82938,84.477426 113.140181,84.8227604 113.157447,85.245795" id="Fill-70" fill="#231F1F" sketch:type="MSShapeGroup"></path>
            <path d="M64.846029,61.4168585 L49.2982113,61.4168585 C45.7032803,61.4168585 42.778298,58.4918762 42.778298,54.8969452 L42.778298,24.6491057 C42.778298,23.6355492 43.0053553,22.6617062 43.45429,21.7517501 C43.6407706,21.3727456 44.099202,21.2173451 44.4790699,21.4038257 C44.857211,21.5903063 45.0134748,22.049601 44.8261309,22.4286055 C44.4825232,23.1253176 44.3081293,23.8729666 44.3081293,24.6491057 L44.3081293,54.8969452 C44.3081293,57.6475336 46.5467595,59.8861638 49.2982113,59.8861638 L64.846029,59.8861638 C67.5966175,59.8861638 69.8352477,57.6475336 69.8352477,54.8969452 L69.8352477,24.6491057 C69.8352477,23.8686499 69.6539471,23.0976909 69.3112027,22.4208355 C69.1204055,22.0435577 69.2714893,21.5833996 69.6479038,21.3926023 C70.0251816,21.2018051 70.4853397,21.3520255 70.6761369,21.7293034 C71.1276617,22.6194028 71.3659424,23.6295059 71.3659424,24.6491057 L71.3659424,54.8969452 C71.3659424,58.4918762 68.4409601,61.4168585 64.846029,61.4168585" id="Fill-71" fill="#231F1F" sketch:type="MSShapeGroup"></path>
            <path d="M67.0466725,50.7986893 L63.2134607,50.7986893 C62.7904261,50.7986893 62.4450917,51.1353903 62.4450917,51.5584249 L62.4450917,56.7470742 C62.4450917,57.1701088 62.7904261,57.5068098 63.2134607,57.5068098 L67.0466725,57.5068098 C67.4697071,57.5068098 67.8150415,57.1701088 67.8150415,56.7470742 L67.8150415,51.5584249 C67.8150415,51.1353903 67.4697071,50.7986893 67.0466725,50.7986893 L67.0466725,50.7986893 Z M63.9818297,52.3267939 L66.2869368,52.3267939 L66.2869368,55.9787052 L63.9818297,55.9787052 L63.9818297,52.3267939 Z" id="Fill-72" fill="#231F1F" sketch:type="MSShapeGroup"></path>
            <path d="M70.8712509,18.1732224 C70.7244838,18.017822 70.5259165,17.9314884 70.3100825,17.9314884 L43.8229345,17.9314884 C43.6071005,17.9314884 43.4085332,18.017822 43.2617661,18.1732224 C43.114999,18.3199896 43.0459321,18.5271902 43.0545655,18.7343908 L43.1926992,21.2035317 C43.1926992,21.2380652 43.1926992,21.2725986 43.2013326,21.3071321 C43.2444994,21.5402328 43.2962996,21.7733335 43.3394664,21.9978009 C43.7711344,24.1906743 44.0819353,25.6410787 44.3064027,26.6166484 C44.7553374,28.5332542 44.9107379,28.5936878 45.2129054,28.7145548 C45.3769393,28.7836217 50.9627231,30.5879939 54.3211001,31.6671639 C55.1930694,31.9434314 55.9182716,32.1765321 56.358573,32.3146659 C56.5398735,32.3750994 56.6780073,32.4182662 56.7557075,32.4441663 C56.8506745,32.4873331 56.9542748,32.5045998 57.0578751,32.5045998 L57.1096753,32.5045998 C57.1960089,32.5045998 57.2823425,32.4873331 57.3600427,32.4527996 C57.437743,32.4268995 57.5845101,32.3837327 57.7917107,32.3146659 C58.3097123,32.150632 59.190315,31.8657311 60.2349516,31.5290301 C63.627862,30.4412268 68.7560777,28.7836217 68.9201115,28.7145548 C69.2222791,28.5936878 69.3776796,28.5332542 69.8352477,26.5734816 C70.0683484,25.5979119 70.370516,24.1561408 70.7935506,21.9891675 L70.7935506,21.9805341 C70.8367174,21.7560668 70.8885176,21.5402328 70.9316844,21.3071321 C70.9403177,21.2725986 70.9403177,21.2380652 70.9403177,21.2035317 L71.0784515,18.7343908 C71.0870849,18.5271902 71.0093846,18.3199896 70.8712509,18.1732224 L70.8712509,18.1732224 Z M68.0567756,27.3936508 C66.4855041,27.9116523 59.7946502,30.0613589 57.5499766,30.7865612 C57.3514094,30.8469947 57.1873755,30.8987948 57.0665085,30.9419616 C56.9456415,30.8987948 56.7816076,30.8469947 56.5830403,30.7865612 C54.3297334,30.0613589 47.6129795,27.8943856 46.0762414,27.3936508 C45.8604074,26.5993816 45.3596726,24.2683745 44.8848378,21.9460007 C44.8848378,21.928734 44.8762044,21.9201006 44.8762044,21.9028339 L44.8762044,21.8855672 L44.8762044,21.8769338 C44.8244043,21.6092997 44.7639707,21.3330321 44.7121706,21.065398 L44.625837,19.4595931 L69.50718,19.4595931 L69.4208464,21.065398 C69.3690463,21.3157654 69.3172461,21.5833996 69.2654459,21.8424004 L69.2654459,21.8596671 C69.2568126,21.8683005 69.2568126,21.8855672 69.2568126,21.8942005 C69.2568126,21.9114673 69.2481792,21.9201006 69.2481792,21.9373673 C68.7733444,24.2597411 68.2726096,26.5993816 68.0567756,27.3936508 L68.0567756,27.3936508 Z" id="Fill-73" fill="#231F1F" sketch:type="MSShapeGroup"></path>
            <path d="M44.5455467,37.3332379 C44.3461161,37.3332379 44.1475488,37.256401 44.0016451,37.1104972 C43.8643746,36.9654568 43.780631,36.7668895 43.780631,36.5674589 C43.780631,36.3688916 43.8643746,36.1703244 44.0016451,36.0321906 C44.2934526,35.7412464 44.8054109,35.7412464 45.0885851,36.0244206 C45.2336255,36.1703244 45.3104624,36.3688916 45.3104624,36.5674589 C45.3104624,36.7746595 45.2336255,36.9654568 45.0885851,37.1104972 C44.9435446,37.256401 44.751884,37.3332379 44.5455467,37.3332379" id="Fill-74" fill="#231F1F" sketch:type="MSShapeGroup"></path>
            <path d="M66.6409046,35.8025432 C66.2178699,35.8025432 65.8811689,36.1478776 65.8811689,36.5709123 C65.8811689,36.9939469 66.2178699,37.3306479 66.6409046,37.3306479 C67.0639392,37.3306479 67.4092736,36.9939469 67.4092736,36.5709123 C67.4092736,36.1478776 67.0639392,35.8025432 66.6409046,35.8025432 L66.6409046,35.8025432 Z M63.4810949,35.8025432 C63.0580602,35.8025432 62.7213592,36.1478776 62.7213592,36.5709123 C62.7213592,36.9939469 63.0580602,37.3306479 63.4810949,37.3306479 C63.9127628,37.3306479 64.2494639,36.9939469 64.2494639,36.5709123 C64.2494639,36.1478776 63.9127628,35.8025432 63.4810949,35.8025432 L63.4810949,35.8025432 Z M60.3299185,35.8025432 C59.9068839,35.8025432 59.5615495,36.1478776 59.5615495,36.5709123 C59.5615495,36.9939469 59.9068839,37.3306479 60.3299185,37.3306479 C60.7529531,37.3306479 61.0982875,36.9939469 61.0982875,36.5709123 C61.0982875,36.1478776 60.7529531,35.8025432 60.3299185,35.8025432 L60.3299185,35.8025432 Z M57.1701088,35.8025432 C56.7470742,35.8025432 56.4017398,36.1478776 56.4017398,36.5709123 C56.4017398,36.9939469 56.7470742,37.3306479 57.1701088,37.3306479 C57.6017768,37.3306479 57.9384778,36.9939469 57.9384778,36.5709123 C57.9384778,36.1478776 57.6017768,35.8025432 57.1701088,35.8025432 L57.1701088,35.8025432 Z M54.0189325,35.8025432 C53.5872645,35.8025432 53.2505635,36.1478776 53.2505635,36.5709123 C53.2505635,36.9939469 53.5872645,37.3306479 54.0189325,37.3306479 C54.4419671,37.3306479 54.7873015,36.9939469 54.7873015,36.5709123 C54.7873015,36.1478776 54.4419671,35.8025432 54.0189325,35.8025432 L54.0189325,35.8025432 Z M50.8591228,35.8025432 C50.4360881,35.8025432 50.0907538,36.1478776 50.0907538,36.5709123 C50.0907538,36.9939469 50.4360881,37.3306479 50.8591228,37.3306479 C51.2821574,37.3306479 51.6188584,36.9939469 51.6188584,36.5709123 C51.6188584,36.1478776 51.2821574,35.8025432 50.8591228,35.8025432 L50.8591228,35.8025432 Z M47.7079464,35.8025432 C47.2849118,35.8025432 46.9395774,36.1478776 46.9395774,36.5709123 C46.9395774,36.9939469 47.2849118,37.3306479 47.7079464,37.3306479 C48.1223477,37.3306479 48.4676821,36.9939469 48.4676821,36.5709123 C48.4676821,36.1478776 48.1223477,35.8025432 47.7079464,35.8025432 L47.7079464,35.8025432 Z" id="Fill-75" fill="#231F1F" sketch:type="MSShapeGroup"></path>
            <path d="M69.8024409,37.3332379 C69.5961036,37.3332379 69.404443,37.256401 69.2594026,37.1104972 C69.1143621,36.9654568 69.0375252,36.7668895 69.0375252,36.5674589 C69.0375252,36.3688916 69.1143621,36.1703244 69.2594026,36.0321906 C69.5503468,35.7412464 70.0553984,35.7412464 70.3385726,36.0321906 C70.483613,36.1703244 70.5673566,36.3688916 70.5673566,36.5674589 C70.5673566,36.7746595 70.483613,36.9654568 70.3385726,37.1104972 C70.2004388,37.256401 70.0018715,37.3332379 69.8024409,37.3332379" id="Fill-76" fill="#231F1F" sketch:type="MSShapeGroup"></path>
            <path d="M56.2109425,34.5627928 L58.3433824,34.5627928 L58.3433824,45.9769578 L56.2109425,45.9769578 L56.2109425,34.5627928 Z" id="Fill-77" fill="#231F1F" sketch:type="MSShapeGroup"></path>
            <path d="M59.4752159,30.7865612 L55.0808357,30.7865612 C54.6578011,30.7865612 54.3211001,31.1318956 54.3211001,31.5549302 L54.3211001,34.1881049 C54.3211001,34.6111396 54.6578011,34.9478406 55.0808357,34.9478406 L59.4752159,34.9478406 C59.8982505,34.9478406 60.2349516,34.6111396 60.2349516,34.1881049 L60.2349516,31.5290301 C60.2176848,31.1146288 59.8896172,30.7865612 59.4752159,30.7865612 L59.4752159,30.7865612 Z M55.8492048,32.3146659 L58.7068469,32.3146659 L58.7068469,33.4197359 L55.8492048,33.4197359 L55.8492048,32.3146659 Z" id="Fill-78" fill="#231F1F" sketch:type="MSShapeGroup"></path>
            <path d="M53.0519962,14.7716787 C52.2490937,14.8062121 50.8677561,15.2378801 50.1252872,16.5328841 C49.9094532,16.9213853 49.7454194,17.3789533 49.6763525,17.9314884 C49.6590858,18.0005553 49.6504524,18.0696221 49.641819,18.138689 L49.5554854,18.9674916 L53.0519962,19.0365584 L53.310997,17.9314884 L53.7771984,15.8853821 L54.0448326,14.7371452 L53.0519962,14.7716787 L53.0519962,14.7716787 Z M51.368491,17.4652869 C51.5325248,17.1026858 51.7742589,16.8523184 52.0246264,16.6796512 L51.8433258,17.4825537 L51.368491,17.4652869 L51.368491,17.4652869 Z" id="Fill-79" fill="#231F1F" sketch:type="MSShapeGroup"></path>
            <path d="M64.2494639,18.138689 C64.2408305,18.0696221 64.2321972,18.0005553 64.2149304,17.9314884 C64.1458636,17.37032 63.9731964,16.8954852 63.748729,16.506984 C62.9976267,15.2292467 61.6335558,14.8062121 60.8392867,14.7716787 L59.837817,14.7371452 L60.0881844,15.8076819 L60.5716526,17.9314884 L60.8306534,19.0365584 L64.3271641,18.9674916 L64.2494639,18.138689 L64.2494639,18.138689 Z M61.8580232,16.6796512 C62.1083906,16.8523184 62.3501247,17.1026858 62.5141586,17.4652869 L62.0393238,17.4825537 L61.8580232,16.6796512 L61.8580232,16.6796512 Z" id="Fill-80" fill="#231F1F" sketch:type="MSShapeGroup"></path>
            <path d="M63.748729,16.506984 L63.5415284,15.8853821 C62.6263922,13.148607 60.3471852,11.6636691 56.9370081,11.6032356 L56.7298075,11.6032356 C53.4404974,11.6032356 51.2907908,13.0450067 50.3411212,15.8853821 L50.1252872,16.5328841 L49.7713194,17.6034207 L51.4030244,16.8091516 C51.4202912,16.8005182 52.4390276,16.3170501 53.7771984,15.8853821 C54.7614014,15.5745811 55.9182716,15.2896803 56.9888083,15.2637802 L57.1614755,15.2637802 C58.1456785,15.2637802 59.190315,15.5141476 60.0881844,15.8076819 C61.4177219,16.2479832 62.4364583,16.7918849 62.453725,16.8005182 L64.1544969,17.7242877 L63.748729,16.506984 L63.748729,16.506984 Z M56.9370081,13.7356755 C55.4866036,13.7788423 53.9412322,14.2018769 52.7584619,14.6162782 C53.6304313,13.6148085 54.9340686,13.1313403 56.7298075,13.1313403 L56.911108,13.1313403 C58.63778,13.1658737 59.9673174,13.6061751 60.8910869,14.4608777 C59.8032836,14.0810099 58.4564794,13.7270421 57.1614755,13.7270421 L56.9370081,13.7356755 L56.9370081,13.7356755 Z" id="Fill-81" fill="#231F1F" sketch:type="MSShapeGroup"></path>
        </g>
    </g>
</svg>