<?xml version="1.0" encoding="UTF-8" standalone="no"?>
<svg width="54px" height="156px" viewBox="0 0 54 156" version="1.1" xmlns="http://www.w3.org/2000/svg" xmlns:xlink="http://www.w3.org/1999/xlink" xmlns:sketch="http://www.bohemiancoding.com/sketch/ns">
    <!-- Generator: Sketch 3.0.4 (8054) - http://www.bohemiancoding.com/sketch -->
    <title>Slice 2</title>
    <desc>Created with Sketch.</desc>
    <defs></defs>
    <g id="Page-1" stroke="none" stroke-width="1" fill="none" fill-rule="evenodd" sketch:type="MSPage">
        <g id="Imported-Layers" sketch:type="MSLayerGroup" fill="#289044">
            <path d="M10.833,155.75 C10.432,155.75 10.02,155.484 9.864,155.115 C9.578,154.44 9.404,154.028 16.583,146.596 L16.583,143.5 C16.583,142.948 17.03,142.5 17.583,142.5 C18.136,142.5 18.583,142.948 18.583,143.5 L18.583,147 C18.583,147.26 18.482,147.509 18.302,147.695 C16.279,149.785 14.118,152.106 12.838,153.586 C15.335,153.358 19.652,152.936 23.083,152.595 L23.083,143.5 C23.083,142.948 23.53,142.5 24.083,142.5 C24.636,142.5 25.083,142.948 25.083,143.5 L25.083,153.5 C25.083,154.014 24.693,154.444 24.183,154.495 C22.087,154.705 11.595,155.75 10.833,155.75" id="Fill-1" sketch:type="MSShapeGroup"></path>
            <path d="M53.223,155 C52.399,155 40.36,153.874 38.989,153.746 C38.476,153.697 38.083,153.266 38.083,152.75 L38.083,143.19 C38.083,142.644 38.52,142.2 39.065,142.19 L46.006,142.07 C46.247,142.054 46.532,142.168 46.725,142.356 C46.916,142.544 47.023,142.802 47.023,143.07 L47.023,145.827 C54.653,153.233 54.482,153.655 54.202,154.348 C54.049,154.726 53.63,155 53.223,155 L53.223,155 Z M40.083,151.839 C43.785,152.185 48.469,152.614 51.139,152.841 C49.77,151.359 47.475,149.048 45.327,146.968 C45.133,146.78 45.023,146.521 45.023,146.25 L45.023,144.087 L40.083,144.173 L40.083,151.839 L40.083,151.839 Z" id="Fill-2" sketch:type="MSShapeGroup"></path>
            <path d="M47.584,86.25 C47.516,86.25 47.446,86.243 47.378,86.228 C46.869,86.122 46.527,85.644 46.591,85.129 C47.813,75.119 42.966,49.137 41.451,41.413 C41.345,40.871 41.698,40.345 42.24,40.239 C42.777,40.131 43.307,40.486 43.414,41.028 C44.903,48.622 47.816,64.491 48.593,76.071 C50.103,67.321 51.37,53.47 47.683,40.82 C47.528,40.29 47.833,39.734 48.362,39.58 C48.898,39.423 49.448,39.731 49.603,40.26 C55.716,61.232 48.613,85.298 48.541,85.538 C48.411,85.968 48.017,86.25 47.584,86.25" id="Fill-3" sketch:type="MSShapeGroup"></path>
            <path d="M7.332,90.5 C6.911,90.5 6.528,90.233 6.388,89.826 C2.141,77.5 3.02,53.686 3.595,44.021 C3.627,43.469 4.114,43.035 4.652,43.082 C5.203,43.115 5.624,43.588 5.591,44.14 C5.211,50.533 4.335,70.048 6.779,83.243 L9.506,45.238 C9.545,44.687 10.032,44.281 10.574,44.312 C11.125,44.352 11.54,44.831 11.5,45.382 L8.33,89.572 C8.297,90.045 7.934,90.43 7.463,90.492 C7.419,90.497 7.375,90.5 7.332,90.5" id="Fill-4" sketch:type="MSShapeGroup"></path>
            <path d="M27.833,144.5 L13.833,144.5 C13.282,144.5 12.835,144.055 12.833,143.503 L12.593,77.004 C12.591,76.452 13.037,76.002 13.589,76 L13.593,76 C14.144,76 14.591,76.445 14.593,76.996 L14.829,142.5 L26.846,142.5 L27.583,82.988 C27.59,82.44 28.035,82 28.583,82 L31.083,82 C31.608,82 32.044,82.406 32.08,82.93 L36.264,142.235 L49.232,142.018 L42.897,77.097 C42.844,76.547 43.246,76.059 43.796,76.005 C44.346,75.946 44.835,76.353 44.888,76.903 L51.328,142.903 C51.355,143.181 51.265,143.457 51.079,143.666 C50.894,143.874 50.629,143.995 50.35,144 L35.349,144.25 C34.846,144.255 34.372,143.85 34.336,143.32 L30.151,84 L29.57,84 L28.833,143.512 C28.826,144.06 28.381,144.5 27.833,144.5" id="Fill-5" sketch:type="MSShapeGroup"></path>
            <path d="M25.249,22.917 C18.908,22.917 13.749,17.758 13.749,11.417 C13.749,5.076 18.908,-0.083 25.249,-0.083 C31.59,-0.083 36.749,5.076 36.749,11.417 C36.749,17.758 31.59,22.917 25.249,22.917 L25.249,22.917 Z M25.249,1.917 C20.011,1.917 15.749,6.179 15.749,11.417 C15.749,16.655 20.011,20.917 25.249,20.917 C30.487,20.917 34.749,16.655 34.749,11.417 C34.749,6.179 30.487,1.917 25.249,1.917 L25.249,1.917 Z" id="Fill-6" sketch:type="MSShapeGroup"></path>
            <path d="M45.083,78 L12.083,78 C11.535,78 11.089,77.559 11.083,77.011 L10.833,54.261 L10.441,46.317 L0.38,44.229 C0.074,44.166 -0.185,43.963 -0.319,43.682 C-0.454,43.4 -0.449,43.071 -0.307,42.794 L9.693,23.294 C9.864,22.96 10.208,22.75 10.583,22.75 L16.146,22.75 C16.595,22.75 16.988,23.048 17.109,23.48 C18.253,27.565 22.012,30.417 26.249,30.417 C30.486,30.417 34.245,27.565 35.389,23.48 C35.51,23.048 35.903,22.75 36.352,22.75 L41.583,22.75 C41.936,22.75 42.264,22.937 42.444,23.241 L52.194,39.741 C52.367,40.034 52.379,40.394 52.228,40.698 C52.075,41.002 51.779,41.207 51.441,41.244 L42.609,42.204 C42.837,49.762 46.042,76.599 46.076,76.881 C46.11,77.165 46.02,77.45 45.831,77.664 C45.642,77.877 45.369,78 45.083,78 L45.083,78 Z M13.072,76 L43.957,76 C43.304,70.473 40.551,46.831 40.597,41.3 C40.601,40.793 40.984,40.369 41.488,40.314 L49.683,39.423 L41.013,24.75 L37.083,24.75 C35.474,29.301 31.123,32.417 26.249,32.417 C21.375,32.417 17.024,29.301 15.415,24.75 L11.194,24.75 L2.072,42.538 L11.605,44.517 C12.052,44.609 12.379,44.991 12.401,45.446 L12.832,54.201 L13.072,76 L13.072,76 Z" id="Fill-7" sketch:type="MSShapeGroup"></path>
            <path d="M13.582,88.75 C13.063,88.75 12.625,88.35 12.586,87.824 C12.545,87.273 12.958,86.793 13.509,86.753 C19.341,86.321 20.33,77.976 20.339,77.892 C20.4,77.343 20.887,76.953 21.441,77.006 C21.99,77.066 22.387,77.559 22.327,78.107 C22.283,78.519 21.151,88.192 13.657,88.747 C13.632,88.749 13.606,88.75 13.582,88.75" id="Fill-8" sketch:type="MSShapeGroup"></path>
            <path d="M44.084,87.25 L44.051,87.25 C41.607,87.171 39.762,86.338 38.564,84.774 C36.317,81.842 37.316,77.456 37.359,77.271 C37.485,76.733 38.032,76.405 38.56,76.527 C39.097,76.652 39.432,77.19 39.307,77.727 C39.299,77.764 38.484,81.391 40.156,83.564 C40.972,84.625 42.304,85.192 44.115,85.25 C44.667,85.269 45.101,85.731 45.082,86.282 C45.065,86.823 44.621,87.25 44.084,87.25" id="Fill-9" sketch:type="MSShapeGroup"></path>
            <path d="M15.582,14.5 C15.142,14.5 14.737,14.206 14.617,13.759 C14.475,13.226 14.79,12.678 15.323,12.534 C18.052,11.801 25.498,9.12 27.18,5.572 C27.349,5.214 27.702,4.974 28.109,5.001 C28.506,5.011 28.858,5.254 29.009,5.621 C29.084,5.802 30.944,10.129 35.809,10.419 C36.359,10.452 36.78,10.925 36.747,11.477 C36.715,12.028 36.219,12.452 35.689,12.415 C31.561,12.169 29.17,9.629 28.017,7.922 C24.567,12.083 16.234,14.361 15.842,14.466 C15.755,14.489 15.668,14.5 15.582,14.5" id="Fill-10" sketch:type="MSShapeGroup"></path>
        </g>
    </g>
</svg>