<?xml version="1.0" encoding="UTF-8" standalone="no"?>
<svg width="49px" height="162px" viewBox="0 0 49 162" version="1.1" xmlns="http://www.w3.org/2000/svg" xmlns:xlink="http://www.w3.org/1999/xlink" xmlns:sketch="http://www.bohemiancoding.com/sketch/ns">
    <!-- Generator: Sketch 3.0.4 (8054) - http://www.bohemiancoding.com/sketch -->
    <title>Slice 2</title>
    <desc>Created with Sketch.</desc>
    <defs></defs>
    <g id="Page-1" stroke="none" stroke-width="1" fill="none" fill-rule="evenodd" sketch:type="MSPage">
        <g id="Imported-Layers" sketch:type="MSLayerGroup" transform="translate(1.000000, 1.000000)" fill="#289044">
            <path d="M1.083,94.25 C0.97,94.25 0.855,94.231 0.745,94.191 C0.365,94.055 0.104,93.703 0.084,93.299 C-1.023,70.978 2.996,55.376 6.562,46.217 C7.605,43.54 8.746,41.049 9.953,38.815 C9.965,38.793 9.978,38.771 9.993,38.747 C11.731,35.525 13.001,33.939 13.055,33.872 C13.3,33.567 13.698,33.434 14.08,33.531 C14.46,33.628 14.748,33.937 14.817,34.323 L14.947,35.043 C15.045,35.586 14.684,36.106 14.141,36.204 C14.037,36.224 13.936,36.226 13.837,36.212 C13.324,36.976 12.592,38.142 11.743,39.715 C11.729,39.741 11.714,39.767 11.697,39.791 C10.522,41.977 9.429,44.369 8.425,46.943 C5.06,55.586 1.285,70.104 1.98,90.779 L3.724,88.867 C4.096,88.458 4.728,88.429 5.137,88.801 C5.545,89.173 5.574,89.805 5.202,90.213 L1.822,93.923 C1.629,94.135 1.359,94.25 1.083,94.25" id="Fill-1" sketch:type="MSShapeGroup"></path>
            <path d="M42.834,161 C42.821,161 42.809,161 42.797,160.999 L27.997,160.46 C27.684,160.448 27.393,160.289 27.214,160.032 C27.034,159.774 26.985,159.447 27.083,159.148 C27.097,159.105 28.471,154.787 27.842,147.892 L23.182,124.011 C23.076,123.469 23.43,122.944 23.972,122.838 C24.509,122.731 25.039,123.086 25.145,123.628 L29.814,147.559 C29.821,147.591 29.825,147.625 29.829,147.658 C30.31,152.856 29.723,156.652 29.313,158.506 L36.838,158.781 C33.841,156.994 30.841,153.866 30.983,148.523 C31.036,146.549 30.773,137.75 30.244,123.748 C30.223,123.196 30.653,122.731 31.205,122.71 C31.746,122.689 32.221,123.12 32.242,123.672 C32.618,133.607 33.052,145.993 32.983,148.577 C32.749,157.335 42.567,158.947 42.985,159.012 C43.509,159.092 43.879,159.567 43.828,160.094 C43.779,160.609 43.347,161 42.834,161" id="Fill-2" sketch:type="MSShapeGroup"></path>
            <path d="M21.003,160.92 L7.753,160.92 C7.25,160.92 6.826,160.547 6.761,160.048 C6.696,159.55 7.013,159.081 7.498,158.953 C7.854,158.858 16.253,156.51 16.253,147.67 C16.242,146.795 14.687,129.668 14.177,124.04 C14.127,123.491 14.532,123.004 15.082,122.954 C15.638,122.916 16.12,123.31 16.169,123.86 C17.63,139.954 18.253,147.075 18.253,147.67 C18.253,153.583 14.975,157.036 12.126,158.92 L19.992,158.92 C19.959,156.084 19.838,148.068 19.51,145.287 C19.502,145.219 19.501,145.15 19.507,145.082 L21.377,123.752 C21.426,123.202 21.93,122.79 22.46,122.844 C23.011,122.892 23.417,123.377 23.369,123.927 L21.508,145.157 C21.909,148.757 21.999,159.454 22.003,159.912 C22.005,160.179 21.9,160.435 21.713,160.624 C21.525,160.813 21.269,160.92 21.003,160.92" id="Fill-3" sketch:type="MSShapeGroup"></path>
            <path d="M0.503,125.17 C0.221,125.17 -0.049,125.051 -0.238,124.841 C-0.432,124.628 -0.524,124.342 -0.49,124.056 L6.981,58.796 C5.504,54.811 5.347,50.633 6.514,46.372 C6.518,46.349 6.522,46.327 6.529,46.305 C7.223,43.781 8.381,41.249 9.973,38.779 C9.993,38.742 10.013,38.708 10.032,38.68 C10.044,38.661 10.057,38.643 10.07,38.625 C11.007,37.179 12.068,35.807 13.226,34.544 C13.6,34.148 13.814,33.944 13.814,33.944 C13.992,33.776 14.227,33.678 14.471,33.67 L27.551,33.25 C27.807,33.24 28.084,33.343 28.278,33.532 C28.474,33.72 28.583,33.979 28.583,34.25 L28.583,35.22 C28.583,35.619 28.346,35.979 27.98,36.138 C27.905,36.17 27.829,36.193 27.751,36.206 L25.094,40.381 C25.738,41.068 26.909,42.332 28.327,43.913 C28.492,44.096 28.583,44.333 28.583,44.58 L28.583,59.015 C30.84,63.583 33.271,70.239 35.812,78.806 C35.969,79.335 35.666,79.892 35.137,80.049 C34.605,80.204 34.05,79.903 33.894,79.374 C31.348,70.786 28.923,64.165 26.688,59.697 C26.619,59.559 26.583,59.405 26.583,59.25 L26.583,44.963 C24.57,42.727 23.124,41.205 23.108,41.19 C22.792,40.856 22.742,40.351 22.989,39.963 L25.955,35.303 L14.93,35.657 C14.861,35.727 14.781,35.81 14.69,35.906 C13.606,37.088 12.605,38.385 11.723,39.752 C11.718,39.761 11.712,39.769 11.706,39.777 C11.695,39.796 11.684,39.814 11.673,39.832 C10.193,42.123 9.117,44.46 8.473,46.779 C8.469,46.802 8.463,46.825 8.457,46.847 C7.366,50.789 7.527,54.647 8.936,58.311 C8.994,58.461 9.015,58.623 8.996,58.784 L1.626,123.153 L44.368,122.518 C43.394,117.68 39.491,98.776 34.662,81.977 C34.51,81.446 34.816,80.892 35.347,80.739 C35.884,80.583 36.432,80.894 36.584,81.424 C42.171,100.861 46.521,123.086 46.564,123.309 C46.621,123.6 46.546,123.9 46.359,124.13 C46.173,124.36 45.894,124.496 45.598,124.5 L0.518,125.17 L0.503,125.17" id="Fill-4" sketch:type="MSShapeGroup"></path>
            <path d="M19.499,30.667 C13.158,30.667 7.999,25.508 7.999,19.167 C7.999,12.826 13.158,7.667 19.499,7.667 C25.84,7.667 30.999,12.826 30.999,19.167 C30.999,25.508 25.84,30.667 19.499,30.667 L19.499,30.667 Z M19.499,9.667 C14.261,9.667 9.999,13.929 9.999,19.167 C9.999,24.405 14.261,28.667 19.499,28.667 C24.737,28.667 28.999,24.405 28.999,19.167 C28.999,13.929 24.737,9.667 19.499,9.667 L19.499,9.667 Z" id="Fill-5" sketch:type="MSShapeGroup"></path>
            <path d="M28.499,25.167 C18.979,25.167 12.853,12.633 12.598,12.1 C12.358,11.602 12.568,11.005 13.066,10.766 C13.563,10.526 14.162,10.737 14.4,11.234 C14.458,11.353 20.239,23.167 28.499,23.167 C29.052,23.167 29.499,23.615 29.499,24.167 C29.499,24.719 29.052,25.167 28.499,25.167" id="Fill-6" sketch:type="MSShapeGroup"></path>
            <path d="M33.686,13.082 C31.3,13.082 28.813,12.373 26.498,11.032 C26.031,10.762 25.863,10.17 26.117,9.695 C26.667,8.669 31.641,-0.328 36.952,-0.328 C38.356,-0.328 39.63,0.284 40.736,1.491 C42.653,3.582 43.18,6.086 42.179,8.36 C40.917,11.228 37.584,13.082 33.686,13.082 L33.686,13.082 Z M28.373,9.769 C30.123,10.63 31.942,11.081 33.686,11.081 C36.743,11.081 39.42,9.664 40.349,7.555 C41.024,6.018 40.639,4.345 39.262,2.843 C38.54,2.055 37.784,1.672 36.952,1.672 C33.807,1.672 30.068,6.899 28.373,9.769 L28.373,9.769 Z" id="Fill-7" sketch:type="MSShapeGroup"></path>
            <path d="M32.002,85.05 C31.837,85.05 31.67,85.009 31.516,84.923 C31.033,84.653 30.86,84.044 31.13,83.562 C31.16,83.508 31.237,83.379 31.355,83.185 C31.79,82.468 32.807,80.788 33.972,78.617 C38.06,71.089 40.006,65.215 39.314,62.497 C38.561,59.57 34.014,53.282 26.837,45.246 C26.47,44.834 26.505,44.202 26.917,43.834 C27.327,43.467 27.96,43.502 28.329,43.914 C33.628,49.848 40.172,57.802 41.252,62.001 C42.311,66.166 38.835,73.852 35.731,79.567 C34.545,81.78 33.509,83.49 33.066,84.221 C32.967,84.384 32.901,84.492 32.876,84.538 C32.692,84.865 32.353,85.05 32.002,85.05" id="Fill-8" sketch:type="MSShapeGroup"></path>
            <path d="M31.983,85.06 C31.431,85.06 30.983,84.612 30.983,84.06 C30.983,83.668 31.209,83.329 31.538,83.165 C32.64,82.592 33.857,81.799 35.012,80.909 C38.538,78.205 44.624,72.146 45.8,61.926 C46.576,55.152 34.301,42.425 26.925,35.973 C26.509,35.609 26.467,34.977 26.83,34.562 C27.194,34.145 27.826,34.104 28.241,34.468 C31.689,37.484 48.836,52.994 47.786,62.154 C46.526,73.107 40.006,79.599 36.231,82.494 C34.987,83.454 33.662,84.315 32.503,84.917 L32.502,84.916 C32.345,85.008 32.162,85.06 31.983,85.06" id="Fill-9" sketch:type="MSShapeGroup"></path>
        </g>
    </g>
</svg>